<?xml version="1.0" encoding="utf-8"?>
<!-- Generator: Adobe Illustrator 17.0.0, SVG Export Plug-In . SVG Version: 6.00 Build 0)  -->
<!DOCTYPE svg PUBLIC "-//W3C//DTD SVG 1.1//EN" "http://www.w3.org/Graphics/SVG/1.1/DTD/svg11.dtd">
<svg version="1.1" id="Camada_1" xmlns="http://www.w3.org/2000/svg" xmlns:xlink="http://www.w3.org/1999/xlink" x="0px" y="0px"
	 width="144px" height="216px" viewBox="0 0 144 216" enable-background="new 0 0 144 216" xml:space="preserve">
<g id="Shape_1_1_" enable-background="new    ">
</g>
<g id="cabeça">
	<path fill="#ADD6F2" d="M77.555,33.532c-0.003-0.812,0.073-1.436,0.073-1.436s0.234-0.422,1.203-2.016s1.547-3.844,1.547-3.844
		s0.281-0.094,0.656-0.438s0.531-1.828,0.531-1.828s0.641-2.453,0.563-3.422s-0.803-1.281-0.803-1.281s-0.182-0.078-0.057-0.906
		s0.047-3.469-0.234-5.016s-2.125-4.469-4.063-5.469s-5.609-1.14-8.281-0.546s-4.609,2.859-5.484,5.25s-0.328,6.531-0.328,6.531
		s-0.422,0.281-0.844,0.813s0.031,2.203,0.453,4.125s0.797,1.891,1.016,1.953s0.5,1.188,0.875,2.25s2,3.938,2,3.938
		s0.089,0.609,0.097,1.407c0,0,0.772,2.204,5.179,2.173C75.855,35.741,77.555,33.532,77.555,33.532z"/>
</g>
<g id="pescoço">
	<path fill="#ADD6F2" d="M79.79,39.129c-0.022-0.023-0.051-0.043-0.073-0.067c-1.047-1.123-1.637-2.453-1.921-3.464
		c-0.189-0.675-0.243-1.463-0.245-2.126c0,0-1.898-1.686-5.551-1.686c-4.066,0-5.529,1.75-5.529,1.75
		c0.004,0.454-0.017,0.969-0.097,1.468c-0.219,1.375-0.844,2.375-2.188,4.063c-0.017,0.021-0.038,0.042-0.056,0.063
		c0,0,3.272,1.469,7.87,1.469C76.371,40.598,79.79,39.129,79.79,39.129z"/>
</g>
<g id="tronco">
	<path fill="#ADD6F2" d="M86.577,89.582c-0.203-0.516-0.75-3.328-0.828-4.25s-0.016-6.219-0.016-6.219s0.481-7.33,0.856-10.97
		c0.179-1.739,1.331-5.368,1.686-6.438c0,0,2.424-2.331,2.564-8.274c0.167-7.042-3.5-10.847-3.5-10.847
		c-1.818-0.668-4.391-1.377-5.763-2.096c-0.691-0.362-1.263-0.825-1.75-1.328c0,0-6.202-2.078-8.222-2.078
		c-1.911,0-7.502,2.078-7.502,2.078c-1.394,1.636-4.698,2.75-4.698,2.75s-1.512,0.525-2.94,1.025c0,0-2.844,2.444-2.844,9.116
		c0,7.671,2.844,9.811,2.844,9.811c0.723,2.181,1.721,10.506,1.721,10.506s0.083,11.208,0.042,13.417
		c-0.042,2.193-1.808,6.73-3.995,14.625c0,0,2.855,3.5,17.772,3.5c12.218,0,17.772-3.5,17.772-3.5
		c-0.472-2.066-1.072-4.6-1.277-5.156C88.171,94.363,86.78,90.098,86.577,89.582z"/>
</g>
<g id="ombro_esquerdo">
	<path fill="#ADD6F2" d="M56.465,60.296c0,0,1.938-2.417,1.938-7.667c0-4.907-1.938-9.71-1.938-9.71
		c-0.343,0.121-0.667,0.234-0.945,0.333c-1.547,0.547-4.094,1.688-6.094,3.484s-1.984,8.266-1.984,8.266s0.044,2.63,0.087,5.294
		c0,0,1.404,1.552,4.424,1.552C54.621,61.848,56.465,60.296,56.465,60.296z"/>
</g>
<g id="ombro_direito">
	<path fill="#ADD6F2" d="M97.089,60.051v-2.393c0,0-0.047-4.516-0.109-5.469s-0.859-4.313-2.406-6.125s-5.344-2.781-5.344-2.781
		s-0.787-0.273-1.89-0.676c0,0-2.125,2.772-2.125,8.553c0,6,2.125,8.891,2.125,8.891s0.719,1.109,4.422,1.109
		C95.277,61.16,97.089,60.051,97.089,60.051z"/>
</g>
<g id="braço_esquerdo">
	<path fill="#ADD6F2" d="M47.64,65.984c0.016,1.281-0.703,6.578-0.703,6.578l-1.531,6.703l-1.75,6.797l-2.094,9.5L40.218,104
		c0,0-0.253,1.813,1.622,2.494c1.587,0.576,3.309-0.705,3.309-0.705c0.269-0.856,4.453-14.192,5.945-17.539
		C52.635,84.791,56.177,65,56.177,65s-0.038-3.372,0.621-3.137v-1.577c0,0-2.051-1.859-4.771-1.859
		c-3.031,0-4.477,1.859-4.477,1.859C47.591,62.757,47.632,65.353,47.64,65.984z"/>
</g>
<g id="braço_direito">
	<path fill="#ADD6F2" d="M104.885,104.064v-0.125c0,0-0.953-5.641-1.016-6.094s-0.875-4.453-1.047-5.172s-1.641-7.313-1.641-7.313
		l-2.031-7.844c0,0-1.047-5.156-1.438-6.797s-0.266-4.156-0.266-4.156l-0.358-6.514c0,0-1.187-2.063-4.968-2.063
		c-3.359,0-4.031,2.063-4.031,2.063c-0.074-1.928,0.186,1.654,0.186,1.654l0.547,3.563l1.031,5.844c0,0,1.234,6.125,1.453,7.406
		s1.078,4.766,1.078,4.766l1.906,6.234l2.516,7.5l2.922,8.578c0,0-0.003,0.017-0.004,0.023c0,0,0.979,1.207,3.24,0.526
		C105.043,105.519,104.885,104.064,104.885,104.064z"/>
</g>
<g id="mão_esquerda">
	<path fill="#ADD6F2" d="M40.234,103.912c0,0-0.563,0.469-1.688,0.813s-2.688,2.531-3.016,3.344s-1.359,2.563-1.359,2.563l-0.828,1
		l0.188,0.516l0.422,0.297l0.547,0.109l0.5-0.188l1.297-1.266l-0.094,0.594c0,0-2.422,5.719-2.703,6.188s-0.922,1.266-0.625,2.063
		s0.984,0.297,1.609-0.266s2.219-4.906,2.219-4.906s0.406-0.375,0.453-0.328s-0.156,0.984-0.469,1.531s-0.953,3.234-1.063,3.703
		s-0.188,1.406,0,1.719s0.656,0.281,1.016,0.172s2.531-6.75,2.531-6.75l0.141,0.297c0,0-1.063,4.094-1.094,4.422
		s-0.344,1.797,0.484,2.031s1.25-1.313,1.609-3.344s1.125-3.5,1.125-3.5l0.016,0.75l-0.406,1.563l-0.281,2.094l0.135,0.447
		c0,0,0.417,0.291,0.792,0.041s1.5-4.457,1.5-4.457l0.542-0.918c0,0,0.917-2.416,1.417-3.457s0-5.042,0-5.042
		s0.111-2.027-1.998-2.813C41.53,102.326,40.234,103.912,40.234,103.912z"/>
</g>
<g id="mão_direita">
	<path fill="#ADD6F2" d="M111.234,117.207l-1.359-3.219l-1.359-3.172l0.641,0.609l0.672,0.719l0.563,0.188l0.781-0.313l0.188-0.469
		v-0.281l-0.391-0.484l-0.516-0.875l-1.219-2.27c0,0-0.953-1.434-2-2.496s-2.375-1.109-2.375-1.109v-0.125
		c0,0-1.309-1.617-3.473-0.922c-2.099,0.674-1.684,2.578-1.684,2.578s-0.25,1.422-0.078,3.531s1.531,4.969,1.781,5.281
		s0.844,2.188,0.844,2.188s0.047,0.922,0.672,2.469s1.063,0.281,1.234-0.328s-0.625-3.484-0.688-3.656s-0.172-0.781,0.109-0.641
		s0.75,2.047,0.75,2.047s0.391,2.25,0.75,3.578s0.828,1.391,1.281,1.281s0.203-1.781,0.188-2.375s-0.766-3.125-0.766-3.125
		s-0.219-0.5-0.219-1.063s0.406,0.328,0.406,0.328s1.266,4.594,1.828,5.688s1.172,0.969,1.531,0.609s0.125-1.625,0.125-1.625
		l-0.813-2.641c0,0-0.609-1.75-0.797-2.406s0.297-0.234,0.297-0.234s2.234,4.875,2.703,5.438s1.063,0.063,1.172-0.141
		s-0.094-0.984-0.094-0.984L111.234,117.207z"/>
</g>
<g id="coxa_esquerda">
	<path fill="#ADD6F2" d="M72.548,100.097c-0.974-1.437,0.155-14.437-7.958-14.312c-5.311,0.082-10.364,14.472-10.403,14.614
		c-2.208,8-0.333,18.833-0.333,18.833s1.667,15.043,1.958,18.459c0.141,1.645,0.252,5.917,0.302,10.562
		c0.005,0.466,0.009,0.937,0.013,1.407c0,0,2.007,9.25,5.617,9.25c2.984,0,5.35-9.25,5.35-9.25c0.057-0.443,0.128-0.9,0.216-1.375
		c0.388-2.086,1.016-4.396,1.377-6.26c0.543-2.791,2.61-19.371,2.625-19.621s1.402-8.921,1.402-8.921S73.113,100.931,72.548,100.097
		z"/>
	<path fill="none" d="M72,100.41"/>
</g>
<g id="coxa_direita">
	<path fill="#ADD6F2" d="M71.267,98.547c2.163-1.666,6.148-12.783,8.823-12.763c5.501,0.041,9.678,14.469,9.718,14.615
		c2.208,8,0.333,18.833,0.333,18.833s-1.667,15.043-1.958,18.459c-0.141,1.645-0.252,5.917-0.302,10.562
		c-0.005,0.466-0.009,0.937-0.013,1.407c0,0-2.888,9.25-5.533,9.25c-3.401,0-5.434-9.25-5.434-9.25
		c-0.057-0.443-0.129-0.9-0.217-1.375c-0.388-2.086-1.016-4.396-1.377-6.26c-0.543-2.791-1.431-19.365-1.446-19.615
		s-1.104-8.927-1.104-8.927S70.468,99.162,71.267,98.547z"/>
</g>
<g id="perna_esquerda">
	<path fill="#ADD6F2" d="M66.107,186.387c0.667-3,1.333-15.834,1.375-17.166c0.042-1.334-0.542-15.5-0.507-18.041
		c0.012-0.885,0.163-1.926,0.371-3.02c0,0-2.725-1.734-5.882-1.734c-3.921,0-5.349,1.734-5.349,1.734
		c0.056,5.035,0.039,10.53-0.092,13.602c-0.25,5.875,1.833,21.416,2,22.25c0.156,0.782,1.778,11.199,2.151,14.899
		c0.006,0.056,1.426,1.25,2.836,1.28c1.509,0.032,3.014-1.106,2.981-1.277c-0.182-0.941-0.335-1.756-0.427-2.318
		C65.148,194.053,65.44,189.387,66.107,186.387z"/>
</g>
<g id="Perna_direita">
	<path fill="#ADD6F2" d="M76.593,169.329c0.016,1.109,0.156,6.5,0.281,7.563s0.797,7.422,0.984,8.719s0.797,6.109,0.75,7.234
		s-0.516,6.031-0.516,6.031s-0.007,0.038-0.019,0.097c0,0,1.219,1.297,2.891,1.094c2.017-0.245,3.021-1.094,3.021-1.094
		c-0.012-0.707-0.008-1.351,0.013-1.753c0.063-1.219,0.422-3.141,0.422-3.141l0.906-5.172l1.188-7.609l0.859-7.453l0.344-4.422
		l0.359-9.172l-0.125-6.828l-0.011-4.685l-0.001-0.328c0,0-1.929-1.891-5.491-1.891c-4.156,0-5.762,1.891-5.762,1.891
		c0.007,0.037,0.014,0.074,0.021,0.11c0.118,0.665,0.212,1.211,0.244,1.465c0.125,0.984,0.125,7.125,0,8.594
		S76.577,168.22,76.593,169.329z"/>
</g>
<g id="pé_esquerdo">
	<path fill="#ADD6F2" d="M57.983,206.652l1.094-1.484c0,0,0.531-1.328,0.797-2.344c0.182-0.692,0.274-2.467,0.295-3.914
		c0.003-0.172,1.671-1.338,3.212-1.297c1.396,0.037,2.584,1.266,2.584,1.266s1.253,6.023,1.565,8.273s-0.891,2.814-0.891,2.814
		s-6.578,0-7.422-0.127s-0.984-0.641-1.031-0.703s-0.656-0.969-0.688-1.5S57.983,206.652,57.983,206.652z"/>
</g>
<g id="pé_direito">
	<path fill="#ADD6F2" d="M86.19,206.652l-1.094-1.484c0,0-0.531-1.328-0.797-2.344c-0.182-0.692-0.274-2.467-0.295-3.914
		c-0.003-0.172-1.671-1.338-3.212-1.297c-1.396,0.037-2.681,1.273-2.681,1.273s-1.156,6.016-1.469,8.266s0.891,2.814,0.891,2.814
		s6.578,0,7.422-0.127s0.984-0.641,1.031-0.703s0.656-0.969,0.688-1.5S86.19,206.652,86.19,206.652z"/>
</g>
<g id="Layer_17">
	<path fill="#ADD6F2" d="M84.442,86.167c2.352,10.549-5.509,12.743-12.306,12.743c-6.798,0-14.915-2.919-12.309-12.743
		c2.606-9.823,5.51-12.743,12.309-12.743C78.934,73.424,82.876,77.813,84.442,86.167z"/>
</g>
<g id="camisa_longa">
	<path fill="none" stroke="#0A0A0A" stroke-width="0.25" stroke-miterlimit="10" d="M46.037,104.201l-5.121-1.793
		c0,0,1.357-8.036,1.377-8.199s1.662-7.761,1.931-8.804s2.357-9.333,2.59-10.424s1.051-4.342,1.201-7.317s0-9.708,0-9.708
		s-0.198-5.455,0.383-8.08s1.153-4.054,4.18-5.494s7.116-2.904,7.116-2.904l1.922-0.729c0,0,4.414,2.82,6.502,3.521
		s4.979,1.748,8.42,0.469s7.102-4.018,7.102-4.018l8.049,2.734c0,0,3.253,0.931,4.428,3.697s1.408,3.85,1.422,5.037
		s-0.031,8.185,0.087,8.875s0.35,5.186,0.35,5.186s-0.103,2.386,0.257,3.999s1.436,6.85,1.687,7.757s2.379,9.483,2.379,9.483
		s1.462,6.59,1.594,7.243s1.156,6.613,1.156,6.613v0.428c-0.173,0-5.336,1.778-5.336,1.778l-4.479-13.244
		c0,0-2.022-6.138-2.633-8.824s-0.981-3.979-1.353-6.459s-1.633-8.783-1.633-8.783l-0.941-5.004c0,0-1.311,3.649-1.835,8
		s-0.708,9.409-0.708,9.409s-0.248,6.239,0.1,7.524s1.226,4.697,2.13,7.047s1.813,6.474,1.813,6.474s-1.135,1.01-5.414,2.349
		s-13.45,1.764-18.131,1.202s-7.1-1.076-7.1-1.076s-4.591-1.975-4.82-2.235s3.613-11.733,3.768-13.362s0.148-8.086,0.148-8.086
		s0.057-5.81-0.039-6.583s-0.796-5.905-0.986-7s-0.466-2.476-0.466-2.476l-0.126-0.53l-0.294,2.439c0,0-1.059,5.822-1.277,6.949
		s-2.53,12.111-2.53,12.111s-0.819,3.491-1.612,5.153S46.037,104.201,46.037,104.201z"/>
</g>
<g id="calça_longa">
	<path fill="none" stroke="#0A0A0A" stroke-width="0.25" stroke-miterlimit="10" d="M54.701,100.013c0,0-1.507,5.78-1.071,11.154
		s1.111,10.938,1.111,10.938l1.181,10.799c0,0,0.612,6.305,0.616,7.867s0.141,11.021,0.141,11.021l-0.108,8.751
		c0,0-0.099,3.823,0.188,7.039s1.236,11.815,1.236,11.815s1.192,8.081,1.272,8.604s1.126,7.992,1.266,9.038s0.176,1.4,0.176,1.4
		s1.041,1.088,2.166,1.282c1.125,0.194,3.403-0.476,3.629-1.224s-0.469-2.693-0.469-2.693s-0.256-4.845,0.143-7.213
		s0.921-5.621,1.071-7.719s0.599-9.044,0.631-9.665s0.111-8.249-0.124-11.333s-0.348-8.852-0.237-9.77s0.733-5.001,1.398-7.105
		s1.194-7.484,1.194-7.484l1.346-10.536c0,0,0.962-6.966,1.123-7.869s0.629-3.953,0.629-3.953l0.597,4.094
		c0,0,0.57,4.657,0.625,5.624s0.91,14.093,0.91,14.093s0.318,3.886,0.595,5.136s1.294,5.745,1.438,6.798s0.188,4.083,0.188,4.083
		s-0.044,4.39-0.127,5.906s-0.164,4.188-0.164,4.188l-0.161,5.188c0,0,0.073,4.082,0.106,4.564s0.111,3.135,0.219,3.967
		s0.75,6.795,0.75,6.795s0.726,5.687,0.788,6.329s0.218,1.923,0.138,2.954s-0.521,5.626-0.521,5.626s0.814,1.026,2.252,1.114
		s2.431-0.422,2.813-0.615s0.861-0.605,0.861-0.605s0-3.396,0.647-5.989s1.343-8.669,1.573-9.592s0.873-6.862,0.873-6.862
		s0.732-6.924,0.67-7.75s0.288-7.357,0.288-7.357l-0.073-7.344l-0.056-7.626c0,0,0.09-7.136,0.171-7.718s0.891-8.615,0.891-8.615
		l0.844-7.928l0.688-5.658c0,0,0.446-4.577,0.386-6.689s-0.063-3.863-0.337-5.592s-0.767-3.846-0.767-3.846L54.701,100.013z"/>
</g>
<g id="camisa_curta">
	<path fill="none" stroke="#0A0A0A" stroke-width="0.25" stroke-miterlimit="10" d="M48.053,59.965
		c-0.018-1.192-0.036-2.011-0.036-2.011s-0.198-5.455,0.383-8.08s1.153-4.054,4.18-5.494s7.116-2.904,7.116-2.904l1.922-0.729
		c0,0,4.414,2.82,6.502,3.521s4.979,1.748,8.42,0.469s7.102-4.018,7.102-4.018l8.049,2.734c0,0,3.254,0.931,4.428,3.697
		c1.176,2.767,1.408,3.85,1.422,5.037c0.011,0.965-0.017,5.765,0.036,7.901c0.013,0.493-8.901,1.145-8.901,1.145
		s-1.311,3.649-1.836,8c-0.523,4.35-0.707,9.409-0.707,9.409s-0.248,6.239,0.1,7.524s1.225,4.697,2.129,7.047
		s1.814,6.474,1.814,6.474s-1.135,1.01-5.414,2.349s-13.451,1.765-18.131,1.202s-7.1-1.076-7.1-1.076s-4.592-1.975-4.82-2.235
		s3.613-11.733,3.768-13.362c0.155-1.628,0.148-8.086,0.148-8.086s0.057-5.81-0.039-6.583s-0.795-5.902-0.984-6.997
		c-0.19-1.094-0.466-2.476-0.466-2.476l-0.126-0.53C57.01,61.894,48.085,62.193,48.053,59.965z"/>
</g>
<g id="bermuda">
	<path fill="none" stroke="#0A0A0A" stroke-width="0.25" stroke-miterlimit="10" d="M54.614,100.125c0,0-1.507,5.78-1.07,11.155
		c0.436,5.373,1.11,10.938,1.11,10.938l1.181,10.799c0,0,0.612,6.305,0.616,7.867c0.001,0.598-0.008,4.186-0.004,8.57
		c0.001,1.063,10.944,1.103,10.985,0.764c0.023-0.188,0.067-0.511,0.129-0.922c0.239-1.591,0.74-4.511,1.269-6.184
		c0.666-2.104,1.194-7.484,1.194-7.484l1.346-10.535c0,0,0.962-6.967,1.123-7.869c0.161-0.904,0.629-3.953,0.629-3.953l0.597,4.094
		c0,0,0.57,4.656,0.625,5.623s0.91,14.094,0.91,14.094s0.318,3.885,0.595,5.135s1.294,5.746,1.438,6.799
		c0.044,0.318,0.078,0.818,0.105,1.36c0.062,1.249,10.991,0.001,10.991,0.001l-0.031-4.389c0,0,0.09-7.137,0.171-7.719
		s0.891-8.615,0.891-8.615l0.844-7.928l0.688-5.658c0,0,0.446-4.576,0.386-6.689c-0.061-2.112-0.063-3.863-0.337-5.592
		s-0.767-3.846-0.767-3.846L54.614,100.125z"/>
</g>
<g id="camiseta_sem_manga">
	<path fill="none" stroke="#0A0A0A" stroke-width="0.25" stroke-miterlimit="10" d="M57.111,42.446
		c1.477-0.578,2.572-0.97,2.572-0.97l1.922-0.729c0,0,4.414,2.82,6.502,3.521s4.979,1.748,8.42,0.469s7.102-4.018,7.102-4.018
		l4.495,1.527c0,0-1.315,7.065-1.249,9.42c0.068,2.392,1.787,9.568,1.787,9.568s-1.311,3.649-1.836,8
		c-0.523,4.35-0.707,9.409-0.707,9.409s-0.248,6.239,0.1,7.524c0.317,1.175,1.078,4.126,1.896,6.419
		c0.077,0.216,0.154,0.426,0.232,0.628c0.904,2.351-32.674,3.044-31.629-0.375c0.857-2.806,1.676-5.539,1.746-6.273
		c0.155-1.628,0.148-8.086,0.148-8.086s0.057-5.81-0.039-6.583s-0.795-5.902-0.984-6.997c-0.19-1.094-0.466-2.476-0.466-2.476
		l-0.126-0.53c0,0,1.52-5.132,1.378-9.981C58.237,47.171,56.431,42.713,57.111,42.446z"/>
</g>
<g id="roupa_intima">
	<path fill="none" stroke="#0A0A0A" stroke-width="0.25" stroke-miterlimit="10" d="M89.355,96.474H55.542
		c0,0-0.919,3.839-1.072,4.464s18.71,12.405,18.71,12.405l17.355-12.673L89.355,96.474z"/>
</g>
</svg>
