<?xml version="1.0" encoding="utf-8"?>
<!-- Generator: Adobe Illustrator 15.1.0, SVG Export Plug-In . SVG Version: 6.00 Build 0)  -->
<!DOCTYPE svg PUBLIC "-//W3C//DTD SVG 1.1//EN" "http://www.w3.org/Graphics/SVG/1.1/DTD/svg11.dtd">
<svg version="1.1" xmlns="http://www.w3.org/2000/svg" xmlns:xlink="http://www.w3.org/1999/xlink" x="0px" y="0px" width="144px"
	 height="216px" viewBox="0 0 144 216" enable-background="new 0 0 144 216" xml:space="preserve">
<g id="Camada_1">
	<g id="Camada_1_1_" display="none">
		<g id="Shape_1_1_" display="inline" enable-background="new    ">
		</g>
		<g id="cabeça" display="inline">
			<path fill="#ADD6F2" d="M77.555,33.532c-0.003-0.813,0.073-1.436,0.073-1.436s0.233-0.422,1.203-2.016
				c0.969-1.594,1.547-3.844,1.547-3.844s0.281-0.094,0.656-0.438c0.375-0.344,0.53-1.828,0.53-1.828s0.642-2.453,0.563-3.422
				c-0.078-0.969-0.803-1.281-0.803-1.281s-0.184-0.078-0.059-0.906s0.047-3.469-0.232-5.016c-0.281-1.547-2.125-4.469-4.063-5.469
				c-1.938-1-5.609-1.14-8.281-0.546s-4.609,2.859-5.484,5.25s-0.328,6.531-0.328,6.531s-0.422,0.281-0.844,0.813
				c-0.422,0.532,0.031,2.203,0.453,4.125c0.422,1.922,0.797,1.891,1.016,1.953c0.219,0.062,0.5,1.188,0.875,2.25s2,3.938,2,3.938
				s0.089,0.609,0.097,1.407c0,0,0.772,2.204,5.179,2.173C75.855,35.741,77.555,33.532,77.555,33.532z"/>
		</g>
		<g id="pescoço" display="inline">
			<path fill="#ADD6F2" d="M79.79,39.129c-0.022-0.023-0.052-0.043-0.073-0.067c-1.047-1.123-1.637-2.453-1.921-3.464
				c-0.188-0.675-0.243-1.463-0.245-2.126c0,0-1.898-1.687-5.551-1.687c-4.066,0-5.529,1.75-5.529,1.75
				c0.004,0.454-0.017,0.969-0.097,1.468c-0.219,1.375-0.844,2.375-2.188,4.063c-0.017,0.021-0.038,0.042-0.056,0.063
				c0,0,3.272,1.469,7.87,1.469C76.371,40.598,79.79,39.129,79.79,39.129z"/>
		</g>
		<g id="tronco" display="inline">
			<path fill="#ADD6F2" d="M86.577,89.582c-0.203-0.516-0.75-3.328-0.828-4.25s-0.017-6.219-0.017-6.219s0.48-7.33,0.855-10.97
				c0.18-1.739,1.331-5.368,1.688-6.438c0,0,2.424-2.331,2.563-8.274c0.167-7.042-3.5-10.847-3.5-10.847
				c-1.816-0.668-4.391-1.377-5.763-2.096c-0.691-0.362-1.265-0.825-1.75-1.328c0,0-6.202-2.078-8.222-2.078
				c-1.911,0-7.502,2.078-7.502,2.078c-1.394,1.636-4.698,2.75-4.698,2.75s-1.512,0.525-2.94,1.025c0,0-2.844,2.444-2.844,9.116
				c0,7.671,2.844,9.811,2.844,9.811c0.723,2.181,1.721,10.506,1.721,10.506s0.083,11.208,0.042,13.417
				c-0.042,2.193-1.808,6.73-3.995,14.625c0,0,2.855,3.5,17.772,3.5c12.22,0,17.771-3.5,17.771-3.5
				c-0.471-2.066-1.07-4.6-1.275-5.156C88.171,94.363,86.779,90.098,86.577,89.582z"/>
		</g>
		<g id="ombro_esquerdo" display="inline">
			<path fill="#ADD6F2" d="M56.465,60.296c0,0,1.938-2.417,1.938-7.667c0-4.907-1.938-9.71-1.938-9.71
				c-0.343,0.121-0.667,0.234-0.945,0.333c-1.547,0.547-4.094,1.688-6.094,3.484s-1.984,8.266-1.984,8.266s0.044,2.63,0.087,5.294
				c0,0,1.404,1.552,4.424,1.552C54.621,61.848,56.465,60.296,56.465,60.296z"/>
		</g>
		<g id="ombro_direito" display="inline">
			<path fill="#ADD6F2" d="M97.089,60.051v-2.394c0,0-0.047-4.516-0.108-5.469c-0.063-0.953-0.858-4.313-2.405-6.125
				c-1.548-1.812-5.345-2.781-5.345-2.781s-0.787-0.272-1.891-0.676c0,0-2.125,2.772-2.125,8.553c0,6,2.125,8.892,2.125,8.892
				s0.719,1.108,4.422,1.108C95.277,61.16,97.089,60.051,97.089,60.051z"/>
		</g>
		<g id="braço_esquerdo" display="inline">
			<path fill="#ADD6F2" d="M47.64,65.984c0.016,1.281-0.703,6.578-0.703,6.578l-1.531,6.703l-1.75,6.797l-2.094,9.5L40.218,104
				c0,0-0.253,1.813,1.622,2.494c1.587,0.576,3.309-0.705,3.309-0.705c0.269-0.856,4.453-14.192,5.945-17.539
				C52.635,84.791,56.177,65,56.177,65s-0.038-3.372,0.621-3.137v-1.577c0,0-2.051-1.858-4.771-1.858
				c-3.031,0-4.477,1.858-4.477,1.858C47.591,62.757,47.632,65.353,47.64,65.984z"/>
		</g>
		<g id="braço_direito" display="inline">
			<path fill="#ADD6F2" d="M104.885,104.064v-0.125c0,0-0.953-5.641-1.016-6.094c-0.063-0.453-0.875-4.453-1.047-5.172
				c-0.172-0.719-1.641-7.313-1.641-7.313l-2.031-7.844c0,0-1.047-5.156-1.438-6.797c-0.392-1.641-0.267-4.156-0.267-4.156
				l-0.357-6.514c0,0-1.188-2.063-4.968-2.063c-3.358,0-4.031,2.063-4.031,2.063c-0.073-1.928,0.187,1.654,0.187,1.654l0.548,3.563
				l1.03,5.844c0,0,1.233,6.125,1.453,7.406c0.219,1.281,1.077,4.766,1.077,4.766l1.906,6.234l2.517,7.5l2.922,8.578
				c0,0-0.004,0.017-0.004,0.023c0,0,0.979,1.207,3.239,0.526C105.043,105.519,104.885,104.064,104.885,104.064z"/>
		</g>
		<g id="mão_esquerda" display="inline">
			<path fill="#ADD6F2" d="M40.234,103.912c0,0-0.563,0.469-1.688,0.813c-1.125,0.344-2.688,2.531-3.016,3.344
				c-0.328,0.813-1.359,2.563-1.359,2.563l-0.828,1l0.188,0.517l0.422,0.297l0.547,0.109l0.5-0.188l1.297-1.268l-0.094,0.594
				c0,0-2.422,5.721-2.703,6.188c-0.281,0.47-0.922,1.267-0.625,2.063c0.297,0.795,0.984,0.297,1.609-0.266
				c0.625-0.564,2.219-4.906,2.219-4.906s0.406-0.375,0.453-0.328c0.047,0.047-0.156,0.984-0.469,1.531s-0.953,3.232-1.063,3.703
				c-0.11,0.469-0.188,1.404,0,1.719c0.188,0.313,0.656,0.281,1.016,0.172s2.531-6.75,2.531-6.75l0.141,0.297
				c0,0-1.063,4.094-1.094,4.422c-0.031,0.328-0.344,1.797,0.484,2.031s1.25-1.313,1.609-3.344c0.359-2.031,1.125-3.5,1.125-3.5
				l0.016,0.75l-0.406,1.563l-0.281,2.094l0.135,0.447c0,0,0.417,0.291,0.792,0.041s1.5-4.457,1.5-4.457l0.542-0.918
				c0,0,0.917-2.416,1.417-3.457s0-5.042,0-5.042s0.111-2.027-1.998-2.813C41.53,102.326,40.234,103.912,40.234,103.912z"/>
		</g>
		<g id="mão_direita" display="inline">
			<path fill="#ADD6F2" d="M111.234,117.207l-1.359-3.219l-1.359-3.172l0.643,0.607l0.672,0.721l0.563,0.188l0.78-0.313l0.188-0.471
				v-0.279l-0.392-0.484l-0.517-0.875l-1.221-2.27c0,0-0.951-1.434-2-2.496c-1.047-1.062-2.375-1.109-2.375-1.109v-0.125
				c0,0-1.309-1.617-3.473-0.922c-2.099,0.674-1.684,2.578-1.684,2.578s-0.25,1.422-0.078,3.532c0.172,2.108,1.531,4.969,1.781,5.28
				s0.844,2.188,0.844,2.188s0.047,0.922,0.672,2.469s1.063,0.281,1.234-0.328c0.171-0.609-0.625-3.484-0.688-3.656
				s-0.172-0.781,0.109-0.641c0.28,0.141,0.75,2.047,0.75,2.047s0.391,2.25,0.75,3.578c0.358,1.328,0.827,1.391,1.28,1.281
				c0.453-0.11,0.203-1.781,0.188-2.375s-0.768-3.125-0.768-3.125s-0.219-0.5-0.219-1.063s0.406,0.328,0.406,0.328
				s1.266,4.595,1.828,5.688s1.172,0.969,1.531,0.607s0.125-1.625,0.125-1.625l-0.813-2.643c0,0-0.608-1.75-0.798-2.404
				c-0.188-0.656,0.298-0.232,0.298-0.232s2.233,4.875,2.702,5.438c0.471,0.563,1.063,0.063,1.173-0.141
				c0.108-0.205-0.095-0.984-0.095-0.984L111.234,117.207z"/>
		</g>
		<g id="coxa_esquerda" display="inline">
			<path fill="#ADD6F2" d="M72.548,100.097c-0.974-1.437,0.155-14.437-7.958-14.312c-5.311,0.082-10.364,14.472-10.403,14.614
				c-2.208,8-0.333,18.833-0.333,18.833s1.667,15.043,1.958,18.459c0.141,1.645,0.252,5.916,0.302,10.562
				c0.005,0.466,0.009,0.937,0.013,1.407c0,0,2.007,9.25,5.617,9.25c2.984,0,5.35-9.25,5.35-9.25c0.057-0.443,0.128-0.9,0.216-1.375
				c0.388-2.086,1.016-4.396,1.377-6.26c0.543-2.791,2.61-19.371,2.625-19.621s1.402-8.922,1.402-8.922
				S73.113,100.931,72.548,100.097z"/>
			<path fill="none" d="M72,100.41"/>
		</g>
		<g id="coxa_direita" display="inline">
			<path fill="#ADD6F2" d="M71.267,98.547c2.163-1.666,6.148-12.783,8.823-12.763c5.501,0.041,9.678,14.469,9.719,14.615
				c2.207,8,0.332,18.833,0.332,18.833s-1.666,15.043-1.957,18.459c-0.142,1.645-0.252,5.916-0.303,10.562
				c-0.005,0.466-0.009,0.937-0.013,1.407c0,0-2.888,9.25-5.533,9.25c-3.401,0-5.435-9.25-5.435-9.25
				c-0.058-0.443-0.129-0.9-0.217-1.375c-0.389-2.086-1.017-4.396-1.377-6.26c-0.543-2.791-1.432-19.365-1.445-19.615
				c-0.017-0.25-1.104-8.928-1.104-8.928S70.468,99.162,71.267,98.547z"/>
		</g>
		<g id="perna_esquerda" display="inline">
			<path fill="#ADD6F2" d="M66.107,186.387c0.667-3,1.333-15.834,1.375-17.166c0.042-1.334-0.542-15.5-0.507-18.041
				c0.012-0.885,0.163-1.926,0.371-3.02c0,0-2.725-1.734-5.882-1.734c-3.921,0-5.349,1.734-5.349,1.734
				c0.056,5.035,0.039,10.529-0.092,13.602c-0.25,5.875,1.833,21.416,2,22.25c0.156,0.782,1.778,11.199,2.151,14.899
				c0.006,0.056,1.426,1.25,2.836,1.28c1.509,0.031,3.014-1.106,2.981-1.277c-0.182-0.941-0.335-1.756-0.427-2.318
				C65.148,194.053,65.44,189.387,66.107,186.387z"/>
		</g>
		<g id="Perna_direita" display="inline">
			<path fill="#ADD6F2" d="M76.593,169.329c0.017,1.108,0.156,6.5,0.281,7.563c0.125,1.063,0.797,7.422,0.983,8.719
				c0.188,1.297,0.797,6.107,0.75,7.232s-0.517,6.031-0.517,6.031s-0.007,0.038-0.019,0.098c0,0,1.219,1.297,2.891,1.094
				c2.018-0.244,3.021-1.094,3.021-1.094c-0.012-0.707-0.008-1.352,0.014-1.754c0.063-1.219,0.422-3.141,0.422-3.141l0.906-5.172
				l1.188-7.609l0.859-7.453l0.344-4.422l0.359-9.172l-0.125-6.828l-0.012-4.686v-0.328c0,0-1.931-1.891-5.491-1.891
				c-4.156,0-5.763,1.891-5.763,1.891c0.008,0.037,0.015,0.074,0.021,0.109c0.118,0.666,0.212,1.211,0.244,1.465
				c0.125,0.984,0.125,7.125,0,8.596C76.826,160.048,76.577,168.221,76.593,169.329z"/>
		</g>
		<g id="pé_esquerdo" display="inline">
			<path fill="#ADD6F2" d="M57.983,206.652l1.094-1.484c0,0,0.531-1.328,0.797-2.344c0.182-0.692,0.274-2.467,0.295-3.914
				c0.003-0.172,1.671-1.338,3.212-1.297c1.396,0.037,2.584,1.266,2.584,1.266s1.253,6.023,1.565,8.273
				c0.312,2.25-0.891,2.813-0.891,2.813s-6.578,0-7.422-0.127c-0.844-0.127-0.984-0.641-1.031-0.703s-0.656-0.969-0.688-1.5
				C57.466,207.105,57.983,206.652,57.983,206.652z"/>
		</g>
		<g id="pé_direito" display="inline">
			<path fill="#ADD6F2" d="M86.189,206.652l-1.095-1.484c0,0-0.53-1.328-0.797-2.344c-0.182-0.692-0.272-2.467-0.295-3.914
				c-0.003-0.172-1.671-1.338-3.212-1.297c-1.396,0.037-2.682,1.271-2.682,1.271s-1.155,6.018-1.469,8.268
				c-0.313,2.25,0.892,2.813,0.892,2.813s6.577,0,7.422-0.127c0.844-0.127,0.983-0.641,1.03-0.703
				c0.048-0.063,0.656-0.969,0.688-1.5C86.706,207.105,86.189,206.652,86.189,206.652z"/>
		</g>
		<g id="Layer_17" display="inline">
			<path fill="#ADD6F2" d="M84.441,86.167c2.353,10.549-5.508,12.743-12.306,12.743s-14.915-2.919-12.309-12.743
				c2.606-9.823,5.51-12.743,12.309-12.743C78.934,73.424,82.876,77.813,84.441,86.167z"/>
		</g>
		<g id="roupaDormir" display="inline">
			<path fill="none" stroke="#6E6E6E" stroke-miterlimit="10" d="M-38.646,62.37l0.827,19.319l-2.533,8.969h31.424l-2.722-8.235
				c0,0,2.24-19.947,2.085-20.053c0,0-2.404-3.657-2.885-7.88c-0.648-5.708,0.541-12.451,0.182-12.604
				c-1.699-0.715-3.531-1.321-3.621-1.383c-0.154-0.106-3,4.352-7.865,4.883c-4.866,0.531-7.451-0.849-7.451-0.849
				s-2.791-2.441-3.308-3.291c-0.517-0.849-0.258-0.745-0.258-0.745s-0.979,0.805-2.185,1.524c-0.473,0.282,0.934,7.739,0.61,13.25
				C-36.603,59.652-38.646,62.37-38.646,62.37z"/>
			<polygon fill="none" stroke="#6E6E6E" stroke-miterlimit="10" points="-39.508,94.147 -8.514,94.147 -7.721,100.02 
				-22.842,114.35 -25.002,114.35 -41.065,100.091 -40.641,94.147 			"/>
		</g>
		<path display="inline" fill="none" d="M45.889,103.45l-5.306-1.741c0,0,2.795-14.57,3.366-16.783
			c0.571-2.213,2.895-11.952,2.895-11.952s0.819-5.721,0.771-8.724C47.567,61.247,47.332,52.604,48,49.781"/>
	</g>
	<g id="cabeça_1_">
		<path fill="#ADD6F2" d="M79.09,33.061c-0.002-0.813,0.074-1.436,0.074-1.436s0.232-0.422,1.202-2.016s1.548-3.844,1.548-3.844
			s0.28-0.094,0.655-0.438c0.375-0.344,0.53-1.828,0.53-1.828s0.642-2.453,0.563-3.422c-0.078-0.969-0.803-1.281-0.803-1.281
			s-0.184-0.078-0.059-0.906s0.048-3.469-0.232-5.016c-0.281-1.547-2.125-4.469-4.063-5.469c-1.938-1-5.609-1.14-8.281-0.546
			s-4.608,2.859-5.483,5.25c-0.875,2.391-0.327,6.531-0.327,6.531s-0.423,0.281-0.845,0.813c-0.423,0.532,0.03,2.203,0.452,4.125
			c0.423,1.922,0.798,1.892,1.018,1.953c0.219,0.063,0.5,1.188,0.875,2.25c0.375,1.063,2,3.938,2,3.938s0.088,0.608,0.096,1.407
			c0,0,0.772,2.204,5.181,2.173C77.392,35.27,79.09,33.061,79.09,33.061z"/>
	</g>
	<g id="pescoço_1_">
		<path fill="#ADD6F2" d="M81.326,38.657c-0.021-0.022-0.052-0.043-0.072-0.066c-1.047-1.123-1.638-2.453-1.922-3.464
			c-0.188-0.675-0.242-1.463-0.244-2.126c0,0-1.898-1.686-5.552-1.686c-4.065,0-5.528,1.75-5.528,1.75
			c0.004,0.454-0.018,0.969-0.098,1.468c-0.22,1.375-0.845,2.375-2.188,4.063c-0.018,0.021-0.037,0.042-0.057,0.063
			c0,0,3.272,1.469,7.87,1.469C77.907,40.126,81.326,38.657,81.326,38.657z"/>
	</g>
	<g id="tronco_1_">
		<path fill="#ADD6F2" d="M88.113,89.11c-0.203-0.516-0.75-3.328-0.828-4.25s-0.017-6.219-0.017-6.219s0.481-7.33,0.856-10.97
			c0.179-1.739,1.33-5.368,1.687-6.438c0,0,2.424-2.331,2.563-8.274c0.166-7.042-3.5-10.847-3.5-10.847
			c-1.817-0.668-4.392-1.377-5.764-2.096c-0.691-0.362-1.264-0.825-1.75-1.328c0,0-6.202-2.078-8.223-2.078
			c-1.91,0-7.502,2.078-7.502,2.078c-1.395,1.636-4.697,2.75-4.697,2.75S59.428,41.963,58,42.463c0,0-2.845,2.444-2.845,9.116
			C55.155,59.25,58,61.39,58,61.39c0.724,2.181,1.722,10.506,1.722,10.506s0.082,11.208,0.041,13.417
			c-0.041,2.193-1.808,6.73-3.994,14.625c0,0,2.854,3.5,17.771,3.5c12.219,0,17.771-3.5,17.771-3.5
			c-0.471-2.066-1.071-4.6-1.276-5.156C89.707,93.891,88.315,89.626,88.113,89.11z"/>
	</g>
	<g id="ombro_esquerdo_1_">
		<path fill="#ADD6F2" d="M58.002,59.824c0,0,1.938-2.417,1.938-7.667c0-4.907-1.938-9.71-1.938-9.71
			c-0.344,0.121-0.668,0.234-0.945,0.333c-1.547,0.547-4.094,1.688-6.094,3.484s-1.984,8.266-1.984,8.266s0.045,2.63,0.088,5.294
			c0,0,1.404,1.552,4.424,1.552C56.157,61.376,58.002,59.824,58.002,59.824z"/>
	</g>
	<g id="ombro_direito_1_">
		<path fill="#ADD6F2" d="M98.625,59.579v-2.393c0,0-0.047-4.516-0.107-5.469c-0.063-0.953-0.859-4.313-2.406-6.125
			c-1.547-1.813-5.344-2.781-5.344-2.781s-0.787-0.273-1.891-0.676c0,0-2.125,2.771-2.125,8.553c0,6,2.125,8.891,2.125,8.891
			s0.719,1.109,4.422,1.109C96.813,60.688,98.625,59.579,98.625,59.579z"/>
	</g>
	<g id="braço_esquerdo_1_">
		<path fill="#ADD6F2" d="M49.176,65.512c0.017,1.281-0.702,6.578-0.702,6.578l-1.531,6.703l-1.75,6.797l-2.094,9.5l-1.345,8.438
			c0,0-0.254,1.813,1.621,2.494c1.588,0.576,3.31-0.705,3.31-0.705c0.271-0.855,4.453-14.192,5.944-17.539
			c1.541-3.459,5.084-23.25,5.084-23.25s-0.039-3.372,0.621-3.137v-1.577c0,0-2.052-1.859-4.771-1.859
			c-3.031,0-4.479,1.859-4.479,1.859C49.127,62.285,49.168,64.881,49.176,65.512z"/>
	</g>
	<g id="braço_direito_1_">
		<path fill="#ADD6F2" d="M106.42,103.593v-0.125c0,0-0.953-5.642-1.016-6.095s-0.875-4.453-1.047-5.172
			c-0.172-0.719-1.641-7.313-1.641-7.313l-2.031-7.844c0,0-1.047-5.156-1.438-6.797c-0.393-1.641-0.268-4.156-0.268-4.156
			l-0.357-6.515c0,0-1.188-2.063-4.968-2.063c-3.358,0-4.03,2.063-4.03,2.063c-0.074-1.928,0.187,1.654,0.187,1.654l0.547,3.563
			l1.031,5.844c0,0,1.233,6.125,1.452,7.406c0.22,1.281,1.078,4.766,1.078,4.766l1.905,6.234l2.517,7.5l2.923,8.578
			c0,0-0.005,0.018-0.005,0.023c0,0,0.979,1.207,3.24,0.525C106.579,105.048,106.42,103.593,106.42,103.593z"/>
	</g>
	<g id="mão_esquerda_1_">
		<path fill="#ADD6F2" d="M41.771,103.44c0,0-0.563,0.469-1.688,0.813c-1.125,0.344-2.688,2.531-3.017,3.344
			c-0.327,0.813-1.358,2.563-1.358,2.563l-0.828,1l0.188,0.518l0.422,0.297l0.547,0.108l0.5-0.188l1.298-1.267l-0.095,0.595
			c0,0-2.422,5.719-2.703,6.188c-0.28,0.47-0.922,1.268-0.625,2.063c0.298,0.797,0.984,0.297,1.609-0.266s2.219-4.906,2.219-4.906
			s0.406-0.375,0.453-0.328s-0.156,0.984-0.469,1.531c-0.313,0.547-0.953,3.232-1.063,3.703c-0.109,0.469-0.188,1.404,0,1.719
			c0.188,0.313,0.655,0.281,1.018,0.172c0.358-0.109,2.529-6.75,2.529-6.75l0.143,0.297c0,0-1.063,4.094-1.096,4.422
			c-0.029,0.328-0.344,1.797,0.484,2.031c0.827,0.234,1.25-1.313,1.608-3.344s1.125-3.5,1.125-3.5l0.017,0.75l-0.406,1.563
			l-0.279,2.095l0.135,0.446c0,0,0.416,0.291,0.791,0.041s1.5-4.457,1.5-4.457l0.543-0.918c0,0,0.916-2.416,1.416-3.457
			s0-5.042,0-5.042s0.111-2.026-1.998-2.813C43.065,101.854,41.771,103.44,41.771,103.44z"/>
	</g>
	<g id="mão_direita_1_">
		<path fill="#ADD6F2" d="M112.771,116.734l-1.359-3.219l-1.358-3.172l0.642,0.608l0.672,0.72l0.563,0.188l0.779-0.313l0.188-0.47
			v-0.28l-0.392-0.484l-0.517-0.875l-1.22-2.27c0,0-0.952-1.435-2-2.496c-1.047-1.063-2.375-1.109-2.375-1.109v-0.125
			c0,0-1.309-1.617-3.473-0.922c-2.1,0.674-1.685,2.578-1.685,2.578s-0.25,1.422-0.078,3.531c0.173,2.107,1.531,4.969,1.781,5.279
			c0.25,0.313,0.844,2.189,0.844,2.189s0.047,0.922,0.672,2.469s1.063,0.281,1.234-0.328s-0.625-3.484-0.688-3.656
			c-0.063-0.172-0.172-0.781,0.109-0.641c0.28,0.14,0.75,2.047,0.75,2.047s0.391,2.25,0.75,3.578
			c0.357,1.328,0.827,1.391,1.28,1.281c0.452-0.111,0.202-1.781,0.188-2.375c-0.015-0.595-0.767-3.125-0.767-3.125
			s-0.219-0.5-0.219-1.064c0-0.563,0.406,0.328,0.406,0.328s1.266,4.595,1.827,5.688c0.563,1.095,1.173,0.97,1.531,0.608
			s0.125-1.625,0.125-1.625l-0.813-2.643c0,0-0.608-1.75-0.797-2.404c-0.188-0.656,0.297-0.233,0.297-0.233s2.233,4.875,2.703,5.438
			c0.469,0.563,1.063,0.063,1.172-0.142c0.108-0.204-0.095-0.983-0.095-0.983L112.771,116.734z"/>
	</g>
	<g id="coxa_esquerda_1_">
		<path fill="#ADD6F2" d="M74.084,99.626c-0.974-1.438,0.155-14.438-7.957-14.313c-5.312,0.082-10.363,14.472-10.402,14.613
			c-2.209,8-0.334,18.833-0.334,18.833s1.668,15.043,1.959,18.459c0.141,1.645,0.252,5.916,0.301,10.563
			c0.006,0.466,0.01,0.938,0.014,1.406c0,0,2.008,9.25,5.617,9.25c2.984,0,5.35-9.25,5.35-9.25c0.058-0.442,0.13-0.899,0.218-1.375
			c0.388-2.086,1.016-4.396,1.377-6.26c0.543-2.791,2.608-19.371,2.625-19.621c0.015-0.25,1.401-8.922,1.401-8.922
			S74.649,100.46,74.084,99.626z"/>
		<path fill="none" d="M73.536,99.938"/>
	</g>
	<g id="coxa_direita_1_">
		<path fill="#ADD6F2" d="M72.804,98.075c2.161-1.666,6.146-12.783,8.821-12.763c5.502,0.041,9.679,14.469,9.72,14.614
			c2.206,8,0.331,18.833,0.331,18.833s-1.666,15.043-1.956,18.459c-0.143,1.645-0.253,5.916-0.304,10.563
			c-0.005,0.466-0.009,0.938-0.013,1.406c0,0-2.888,9.25-5.533,9.25c-3.4,0-5.435-9.25-5.435-9.25
			c-0.057-0.442-0.129-0.899-0.217-1.375c-0.389-2.086-1.017-4.396-1.377-6.26c-0.543-2.791-1.432-19.365-1.445-19.615
			c-0.016-0.25-1.104-8.928-1.104-8.928S72.004,98.69,72.804,98.075z"/>
	</g>
	<g id="perna_esquerda_1_">
		<path fill="#ADD6F2" d="M67.644,185.915c0.666-3,1.332-15.834,1.375-17.166c0.041-1.334-0.543-15.5-0.509-18.041
			c0.013-0.886,0.164-1.927,0.371-3.021c0,0-2.725-1.733-5.881-1.733c-3.922,0-5.35,1.733-5.35,1.733
			c0.057,5.035,0.039,10.529-0.092,13.603c-0.25,5.875,1.832,21.416,2,22.25c0.156,0.782,1.777,11.198,2.15,14.899
			c0.006,0.056,1.426,1.25,2.836,1.279c1.51,0.031,3.014-1.105,2.98-1.277c-0.184-0.94-0.335-1.756-0.427-2.317
			C66.685,193.581,66.976,188.915,67.644,185.915z"/>
	</g>
	<g id="Perna_direita_1_">
		<path fill="#ADD6F2" d="M78.129,168.857c0.017,1.107,0.155,6.5,0.28,7.563s0.798,7.422,0.983,8.719
			c0.188,1.297,0.797,6.108,0.75,7.233s-0.516,6.03-0.516,6.03s-0.008,0.039-0.02,0.098c0,0,1.219,1.297,2.891,1.094
			c2.018-0.244,3.021-1.094,3.021-1.094c-0.012-0.707-0.008-1.352,0.014-1.753c0.063-1.22,0.422-3.142,0.422-3.142l0.906-5.172
			l1.188-7.609l0.859-7.452l0.344-4.423l0.359-9.172l-0.125-6.828l-0.012-4.684v-0.328c0,0-1.93-1.892-5.491-1.892
			c-4.156,0-5.763,1.892-5.763,1.892c0.008,0.037,0.015,0.074,0.021,0.108c0.118,0.666,0.212,1.211,0.244,1.466
			c0.125,0.983,0.125,7.125,0,8.594C78.362,159.576,78.113,167.749,78.129,168.857z"/>
	</g>
	<g id="pé_esquerdo_1_">
		<path fill="#ADD6F2" d="M59.519,206.182l1.095-1.484c0,0,0.53-1.328,0.797-2.344c0.184-0.692,0.274-2.467,0.295-3.914
			c0.004-0.172,1.672-1.338,3.213-1.297c1.396,0.037,2.584,1.266,2.584,1.266s1.252,6.023,1.563,8.273
			c0.313,2.25-0.892,2.813-0.892,2.813s-6.577,0-7.422-0.127c-0.844-0.127-0.983-0.641-1.03-0.703
			c-0.048-0.063-0.656-0.969-0.688-1.5C59.002,206.635,59.519,206.182,59.519,206.182z"/>
	</g>
	<g id="pé_direito_1_">
		<path fill="#ADD6F2" d="M87.726,206.182l-1.095-1.484c0,0-0.53-1.328-0.797-2.344c-0.182-0.692-0.272-2.467-0.295-3.914
			c-0.003-0.172-1.671-1.338-3.212-1.297c-1.396,0.037-2.681,1.271-2.681,1.271s-1.156,6.018-1.469,8.268
			c-0.313,2.25,0.891,2.813,0.891,2.813s6.578,0,7.422-0.127s0.984-0.641,1.031-0.703s0.656-0.969,0.688-1.5
			C88.242,206.635,87.726,206.182,87.726,206.182z"/>
	</g>
	<g id="Layer_17_1_">
		<path fill="#ADD6F2" d="M85.978,85.695c2.353,10.549-5.508,12.743-12.306,12.743c-6.799,0-14.916-2.919-12.31-12.743
			c2.606-9.823,5.511-12.743,12.31-12.743C80.47,72.952,84.412,77.341,85.978,85.695z"/>
	</g>
	<path fill="none" d="M47.424,102.978l-5.306-1.74c0,0,2.796-14.57,3.366-16.784c0.57-2.214,2.895-11.952,2.895-11.952
		s0.818-5.721,0.771-8.724c-0.048-3.002-0.283-11.646,0.386-14.469"/>
	<g>
		<g id="coxa_esquerda_2_">
			<path fill="#ADD6F2" stroke="#020202" stroke-width="0.25" stroke-miterlimit="10" d="M68.613,149.189
				c0.057-0.443,0.129-0.9,0.217-1.375c0.389-2.086,1.017-4.396,1.377-6.26c0.543-2.791,2.609-19.371,2.625-19.621
				s1.401-8.922,1.401-8.922s0.399-12.553-0.166-13.387c-0.974-1.437,0.155-14.437-7.958-14.312
				c-5.311,0.082-10.363,14.472-10.402,14.614c-2.209,8-0.334,18.834-0.334,18.834s1.668,15.043,1.959,18.459
				c0.142,1.645,0.252,5.916,0.301,10.561c0.007,0.467,0.011,0.938,0.015,1.408"/>
			<path fill="none" stroke="#020202" stroke-width="0.25" stroke-miterlimit="10" d="M73.52,99.939"/>
		</g>
		<g id="coxa_direita_2_">
			<path fill="#ADD6F2" stroke="#020202" stroke-width="0.25" stroke-miterlimit="10" d="M72.787,98.076
				c2.162-1.666,6.147-12.783,8.822-12.763c5.501,0.041,9.678,14.469,9.719,14.615c2.207,8,0.332,18.833,0.332,18.833
				s-1.666,15.043-1.957,18.459c-0.142,1.645-0.252,5.916-0.303,10.561c-0.005,0.468-0.009,0.939-0.013,1.408
				c0,0-2.888,9.25-5.533,9.25c-3.401,0-5.435-9.25-5.435-9.25c-0.058-0.442-0.129-0.899-0.218-1.375
				c-0.388-2.086-1.016-4.396-1.377-6.26c-0.543-2.791-1.431-19.365-1.444-19.615c-0.017-0.25-1.104-8.928-1.104-8.928"/>
		</g>
		<g id="cabeça_2_">
			<path fill="#ADD6F2" d="M79.074,33.061c-0.003-0.813,0.073-1.436,0.073-1.436s0.233-0.422,1.203-2.016
				c0.969-1.594,1.547-3.844,1.547-3.844s0.281-0.094,0.656-0.438c0.375-0.344,0.53-1.828,0.53-1.828s0.642-2.453,0.563-3.422
				c-0.078-0.969-0.803-1.281-0.803-1.281s-0.184-0.078-0.059-0.906s0.047-3.469-0.232-5.016c-0.281-1.547-2.125-4.469-4.063-5.469
				s-5.608-1.14-8.28-0.546c-2.673,0.594-4.608,2.859-5.483,5.25c-0.875,2.391-0.328,6.531-0.328,6.531s-0.422,0.281-0.844,0.813
				c-0.423,0.532,0.03,2.203,0.452,4.125c0.423,1.922,0.798,1.892,1.017,1.953c0.22,0.063,0.5,1.188,0.875,2.25
				c0.375,1.063,2,3.938,2,3.938s0.089,0.608,0.097,1.407c0,0,0.772,2.204,5.18,2.173C77.375,35.27,79.074,33.061,79.074,33.061z"/>
		</g>
		<g id="pescoço_2_">
			<path fill="#ADD6F2" d="M81.31,38.658c-0.022-0.022-0.052-0.043-0.073-0.066c-1.047-1.123-1.637-2.453-1.921-3.464
				c-0.188-0.675-0.243-1.463-0.245-2.126c0,0-1.898-1.686-5.551-1.686c-4.066,0-5.529,1.75-5.529,1.75
				c0.004,0.454-0.017,0.969-0.097,1.468c-0.22,1.375-0.845,2.375-2.188,4.063c-0.017,0.021-0.037,0.042-0.056,0.063
				c0,0,3.272,1.469,7.87,1.469C77.891,40.127,81.31,38.658,81.31,38.658z"/>
		</g>
		<g id="tronco_2_">
			<path fill="#ADD6F2" stroke="#020202" stroke-width="0.25" stroke-miterlimit="10" d="M88.737,42.113
				c-1.222-0.449-2.787-0.917-4.098-1.394c-0.175-0.063-5.38,4.675-10.703,4.635c-5.402-0.041-10.929-4.856-11.446-4.611
				c-0.937,0.442-1.688,0.696-1.688,0.696s-1.512,0.525-2.94,1.025"/>
			<path fill="#ADD6F2" stroke="#020202" stroke-width="0.25" stroke-miterlimit="10" d="M57.926,61.598
				c0.718,2.455,1.658,10.299,1.658,10.299s0.082,11.208,0.041,13.417c-0.041,2.193-1.809,6.73-3.994,14.625
				c0,0,2.854,3.5,17.771,3.5c12.219,0,17.771-3.5,17.771-3.5c-0.471-2.066-1.07-4.6-1.275-5.156
				c-0.328-0.891-1.721-5.156-1.922-5.672c-0.203-0.516-0.75-3.328-0.828-4.25s-0.018-6.219-0.018-6.219s0.481-7.33,0.856-10.97
				c0.179-1.739,1.331-5.368,1.687-6.438"/>
		</g>
		<g id="ombro_esquerdo_2_">
			<path fill="#ADD6F2" stroke="#020202" stroke-width="0.25" stroke-miterlimit="10" d="M57.984,42.448
				c-0.343,0.121-0.667,0.234-0.945,0.333c-1.547,0.547-4.094,1.688-6.094,3.484s-1.984,8.266-1.984,8.266s0.045,2.63,0.088,5.294
				c0,0,1.404,1.552,4.425,1.552"/>
		</g>
		<g id="mão_direita_2_">
			<path fill="#ADD6F2" d="M112.754,116.736l-1.359-3.219l-1.359-3.172l0.643,0.606l0.672,0.721l0.563,0.188l0.78-0.313l0.188-0.471
				v-0.279l-0.392-0.483l-0.517-0.875l-1.221-2.271c0,0-0.951-1.435-2-2.497c-1.047-1.062-2.375-1.109-2.375-1.109v-0.125
				c0,0-1.309-1.617-3.473-0.922c-2.099,0.674-1.684,2.578-1.684,2.578s-0.25,1.422-0.078,3.532c0.172,2.106,1.531,4.97,1.781,5.278
				c0.25,0.314,0.844,2.189,0.844,2.189s0.047,0.922,0.672,2.469s1.063,0.281,1.234-0.328c0.17-0.608-0.625-3.483-0.688-3.655
				c-0.063-0.173-0.172-0.781,0.108-0.642c0.281,0.14,0.75,2.047,0.75,2.047s0.392,2.25,0.75,3.578s0.828,1.392,1.281,1.281
				c0.452-0.111,0.202-1.781,0.188-2.375c-0.016-0.594-0.768-3.125-0.768-3.125s-0.219-0.5-0.219-1.064
				c0-0.563,0.406,0.328,0.406,0.328s1.266,4.595,1.828,5.689c0.563,1.094,1.172,0.969,1.531,0.607
				c0.358-0.359,0.125-1.625,0.125-1.625l-0.813-2.641c0,0-0.608-1.75-0.798-2.406s0.298-0.232,0.298-0.232s2.233,4.875,2.702,5.438
				c0.47,0.563,1.063,0.063,1.173-0.141c0.108-0.205-0.095-0.984-0.095-0.984L112.754,116.736z"/>
		</g>
		<g id="ombro_direito_2_">
			<path fill="#ADD6F2" stroke="#020202" stroke-width="0.25" stroke-miterlimit="10" d="M93.281,60.689
				c3.516,0,5.327-1.109,5.327-1.109v-2.393c0,0-0.047-4.516-0.108-5.469c-0.063-0.953-0.858-4.313-2.406-6.125
				c-1.547-1.813-5.344-2.781-5.344-2.781s-0.787-0.273-1.891-0.676"/>
			<path fill="#ADD6F2" stroke="#020202" stroke-width="0.25" stroke-miterlimit="10" d="M89.752,60.164"/>
		</g>
		<g id="braço_direito_2_">
			<path fill="#ADD6F2" stroke="#020202" stroke-width="0.25" stroke-miterlimit="10" d="M89.612,61.234l0.729,3.561l1.031,5.844
				c0,0,1.232,6.125,1.452,7.406c0.22,1.281,1.077,4.766,1.077,4.766l1.906,6.234l2.517,7.5l2.386,7.004c0,0,5.53-1.044,5.336-2.206
				c-0.277-1.651-0.621-3.704-0.658-3.97c-0.063-0.453-0.875-4.453-1.047-5.172c-0.172-0.719-1.642-7.313-1.642-7.313l-2.03-7.844
				c0,0-1.047-5.156-1.438-6.797s-0.267-4.156-0.267-4.156l-0.356-6.967"/>
		</g>
		<g id="mão_esquerda_2_">
			<path fill="#ADD6F2" d="M41.754,103.441c0,0-0.563,0.469-1.688,0.813c-1.125,0.344-2.688,2.531-3.017,3.343
				c-0.327,0.813-1.358,2.563-1.358,2.563l-0.828,1l0.188,0.518l0.422,0.297l0.547,0.109l0.5-0.189l1.297-1.266l-0.094,0.594
				c0,0-2.422,5.719-2.703,6.188c-0.281,0.471-0.922,1.269-0.625,2.063c0.297,0.797,0.984,0.297,1.609-0.266
				c0.625-0.564,2.219-4.906,2.219-4.906s0.406-0.375,0.453-0.328s-0.156,0.984-0.469,1.531c-0.313,0.547-0.953,3.232-1.063,3.703
				c-0.11,0.469-0.188,1.404,0,1.719c0.188,0.313,0.655,0.281,1.017,0.172c0.359-0.109,2.53-6.75,2.53-6.75l0.142,0.297
				c0,0-1.063,4.094-1.095,4.422c-0.03,0.328-0.344,1.797,0.484,2.031c0.827,0.234,1.25-1.313,1.607-3.344
				c0.359-2.031,1.125-3.5,1.125-3.5l0.018,0.75l-0.406,1.563l-0.28,2.095l0.135,0.446c0,0,0.416,0.291,0.791,0.041
				s1.5-4.457,1.5-4.457l0.543-0.918c0,0,0.916-2.416,1.416-3.457s0-5.042,0-5.042s0.111-2.027-1.998-2.813
				C43.049,101.855,41.754,103.441,41.754,103.441z"/>
		</g>
		<g id="braço_esquerdo_2_">
			<path fill="#ADD6F2" stroke="#020202" stroke-width="0.25" stroke-miterlimit="10" d="M49.069,59.815
				c0.041,2.471,0.082,5.067,0.091,5.698c0.016,1.281-0.703,6.578-0.703,6.578l-1.531,6.703l-1.75,6.797l-2.094,9.5l-1.166,7.316
				c0,0,4.934,2.335,5.143,1.675c1.124-3.554,4.297-13.482,5.556-16.305c1.541-3.459,5.083-23.25,5.083-23.25
				s-0.021-1.985,0.266-2.803"/>
		</g>
		<g id="Perna_direita_2_">
			<path fill="#ADD6F2" stroke="#020202" stroke-width="0.25" stroke-miterlimit="10" d="M78.205,147.939
				c0.008,0.037,0.016,0.074,0.021,0.108c0.118,0.666,0.212,1.212,0.244,1.466c0.125,0.983,0.125,7.125,0,8.594
				s-0.374,9.643-0.358,10.75c0.017,1.108,0.156,6.5,0.281,7.563s0.797,7.423,0.983,8.72c0.188,1.297,0.797,6.106,0.75,7.231
				s-0.517,6.03-0.517,6.03s-0.007,0.039-0.019,0.099c0,0,1.219,1.297,2.891,1.095c2.018-0.244,3.021-1.095,3.021-1.095
				c-0.013-0.707-0.008-1.353,0.014-1.754c0.063-1.22,0.422-3.142,0.422-3.142l0.906-5.172l1.188-7.609l0.859-7.452l0.344-4.423
				l0.359-9.172l-0.125-6.828l-0.012-4.684v-0.328"/>
		</g>
		<g id="pé_esquerdo_2_">
			<path fill="#ADD6F2" d="M59.502,206.182l1.096-1.484c0,0,0.529-1.327,0.797-2.344c0.183-0.692,0.273-2.467,0.295-3.914
				c0.003-0.172,1.671-1.338,3.212-1.297c1.396,0.037,2.584,1.267,2.584,1.267s1.253,6.022,1.563,8.272
				c0.313,2.25-0.891,2.813-0.891,2.813s-6.578,0-7.422-0.127c-0.844-0.128-0.984-0.642-1.031-0.703s-0.656-0.97-0.688-1.5
				C58.985,206.635,59.502,206.182,59.502,206.182z"/>
		</g>
		<g id="perna_esquerda_2_">
			<path fill="none" stroke="#020202" stroke-width="0.25" stroke-miterlimit="10" d="M57.635,147.689
				c0.056,5.035,0.039,10.529-0.092,13.602c-0.25,5.875,1.832,21.416,2,22.25c0.155,0.781,1.776,11.199,2.149,14.898
				c0.006,0.057,1.426,1.25,2.836,1.281c1.511,0.03,3.015-1.107,2.981-1.277c-0.184-0.941-0.336-1.756-0.428-2.318
				c-0.416-2.543-0.125-7.209,0.543-10.209c0.666-3,1.332-15.834,1.375-17.166c0.041-1.334-0.543-15.5-0.508-18.041
				c0.012-0.885,0.164-1.926,0.371-3.02"/>
		</g>
	</g>
	<path fill="#ADD6F2" stroke="#020202" stroke-width="0.25" stroke-miterlimit="10" d="M80.09,85.784"/>
</g>
<g id="camisa_longa">
	<path fill="none" stroke="#0A0A0A" stroke-width="0.25" stroke-miterlimit="10" d="M47.037,104.201l-5.121-1.793
		c0,0,1.357-8.036,1.377-8.199s1.662-7.761,1.931-8.804s2.357-9.333,2.59-10.424s1.051-4.342,1.201-7.317s0-9.708,0-9.708
		s-0.198-5.455,0.383-8.08s1.153-4.054,4.18-5.494s7.116-2.904,7.116-2.904l1.922-0.729c0,0,4.414,2.82,6.502,3.521
		s4.979,1.748,8.42,0.469s7.102-4.018,7.102-4.018l8.049,2.734c0,0,3.253,0.931,4.428,3.697s1.408,3.85,1.422,5.037
		s-0.031,8.185,0.087,8.875s0.35,5.186,0.35,5.186s-0.103,2.386,0.257,3.999s1.436,6.85,1.687,7.757s2.379,9.483,2.379,9.483
		s1.462,6.59,1.594,7.243s1.156,6.613,1.156,6.613v0.428c-0.173,0-5.336,1.778-5.336,1.778l-4.479-13.244
		c0,0-2.022-6.138-2.633-8.824s-0.981-3.979-1.353-6.459s-1.633-8.783-1.633-8.783l-0.941-5.004c0,0-1.311,3.649-1.835,8
		s-0.708,9.409-0.708,9.409s-0.248,6.239,0.1,7.524s1.226,4.697,2.13,7.047s1.813,6.474,1.813,6.474s-1.135,1.01-5.414,2.349
		s-13.45,1.764-18.131,1.202s-7.1-1.076-7.1-1.076s-4.591-1.975-4.82-2.235s3.613-11.733,3.768-13.362s0.148-8.086,0.148-8.086
		s0.057-5.81-0.039-6.583S58.79,65.995,58.6,64.9s-0.466-2.476-0.466-2.476l-0.126-0.53l-0.294,2.439c0,0-1.059,5.822-1.277,6.949
		s-2.53,12.111-2.53,12.111s-0.819,3.491-1.612,5.153S47.037,104.201,47.037,104.201z"/>
</g>
<g id="calça_longa">
	<path fill="none" stroke="#0A0A0A" stroke-width="0.25" stroke-miterlimit="10" d="M55.701,100.013c0,0-1.507,5.78-1.071,11.154
		s1.111,10.938,1.111,10.938l1.181,10.799c0,0,0.612,6.305,0.616,7.867s0.141,11.021,0.141,11.021l-0.108,8.751
		c0,0-0.099,3.823,0.188,7.039s1.236,11.815,1.236,11.815s1.192,8.081,1.272,8.604s1.126,7.992,1.266,9.038s0.176,1.4,0.176,1.4
		s1.041,1.088,2.166,1.282s3.403-0.476,3.629-1.224s-0.469-2.693-0.469-2.693s-0.256-4.845,0.143-7.213s0.921-5.621,1.071-7.719
		s0.599-9.044,0.631-9.665s0.111-8.249-0.124-11.333s-0.348-8.852-0.237-9.77s0.733-5.001,1.398-7.105s1.194-7.484,1.194-7.484
		l1.346-10.536c0,0,0.962-6.966,1.123-7.869s0.629-3.953,0.629-3.953l0.597,4.094c0,0,0.57,4.657,0.625,5.624
		s0.91,14.093,0.91,14.093s0.318,3.886,0.595,5.136s1.294,5.745,1.438,6.798s0.188,4.083,0.188,4.083s-0.044,4.39-0.127,5.906
		s-0.164,4.188-0.164,4.188l-0.161,5.188c0,0,0.073,4.082,0.106,4.564s0.111,3.135,0.219,3.967s0.75,6.795,0.75,6.795
		s0.726,5.687,0.788,6.329s0.218,1.923,0.138,2.954s-0.521,5.626-0.521,5.626s0.814,1.026,2.252,1.114s2.431-0.422,2.813-0.615
		s0.861-0.605,0.861-0.605s0-3.396,0.647-5.989s1.343-8.669,1.573-9.592s0.873-6.862,0.873-6.862s0.732-6.924,0.67-7.75
		s0.288-7.357,0.288-7.357l-0.073-7.344l-0.056-7.626c0,0,0.09-7.136,0.171-7.718s0.891-8.615,0.891-8.615l0.844-7.928l0.688-5.658
		c0,0,0.446-4.577,0.386-6.689s-0.063-3.863-0.337-5.592s-0.767-3.846-0.767-3.846L55.701,100.013z"/>
</g>
<g id="camisa_curta">
	<path fill="none" stroke="#0A0A0A" stroke-width="0.25" stroke-miterlimit="10" d="M49.053,59.965
		c-0.018-1.192-0.036-2.011-0.036-2.011s-0.198-5.455,0.383-8.08s1.153-4.054,4.18-5.494s7.116-2.904,7.116-2.904l1.922-0.729
		c0,0,4.414,2.82,6.502,3.521s4.979,1.748,8.42,0.469s7.102-4.018,7.102-4.018l8.049,2.734c0,0,3.254,0.931,4.428,3.697
		c1.176,2.767,1.408,3.85,1.422,5.037c0.011,0.965-0.017,5.765,0.036,7.901c0.013,0.493-8.901,1.145-8.901,1.145
		s-1.311,3.649-1.836,8c-0.523,4.35-0.707,9.409-0.707,9.409s-0.248,6.239,0.1,7.524s1.225,4.697,2.129,7.047
		s1.814,6.474,1.814,6.474s-1.135,1.01-5.414,2.349s-13.451,1.765-18.131,1.202s-7.1-1.076-7.1-1.076s-4.592-1.975-4.82-2.235
		s3.613-11.733,3.768-13.362c0.155-1.628,0.148-8.086,0.148-8.086s0.057-5.81-0.039-6.583s-0.795-5.902-0.984-6.997
		c-0.19-1.094-0.466-2.476-0.466-2.476l-0.126-0.53C58.01,61.894,49.085,62.193,49.053,59.965z"/>
</g>
<g id="bermuda">
	<path fill="none" stroke="#0A0A0A" stroke-width="0.25" stroke-miterlimit="10" d="M55.614,100.125c0,0-1.507,5.78-1.07,11.155
		c0.436,5.373,1.11,10.938,1.11,10.938l1.181,10.799c0,0,0.612,6.305,0.616,7.867c0.001,0.598-0.008,4.186-0.004,8.57
		c0.001,1.063,10.944,1.103,10.985,0.764c0.023-0.188,0.067-0.511,0.129-0.922c0.239-1.591,0.74-4.511,1.269-6.184
		c0.666-2.104,1.194-7.484,1.194-7.484l1.346-10.535c0,0,0.962-6.967,1.123-7.869c0.161-0.904,0.629-3.953,0.629-3.953l0.597,4.094
		c0,0,0.57,4.656,0.625,5.623s0.91,14.094,0.91,14.094s0.318,3.885,0.595,5.135s1.294,5.746,1.438,6.799
		c0.044,0.318,0.078,0.818,0.105,1.36c0.062,1.249,10.991,0.001,10.991,0.001l-0.031-4.389c0,0,0.09-7.137,0.171-7.719
		s0.891-8.615,0.891-8.615l0.844-7.928l0.688-5.658c0,0,0.446-4.576,0.386-6.689c-0.061-2.112-0.063-3.863-0.337-5.592
		s-0.767-3.846-0.767-3.846L55.614,100.125z"/>
</g>
<g id="camiseta_sem_manga">
	<path fill="none" stroke="#0A0A0A" stroke-width="0.25" stroke-miterlimit="10" d="M58.111,42.446
		c1.477-0.578,2.572-0.97,2.572-0.97l1.922-0.729c0,0,4.414,2.82,6.502,3.521s4.979,1.748,8.42,0.469s7.102-4.018,7.102-4.018
		l4.495,1.527c0,0-1.315,7.065-1.249,9.42c0.068,2.392,1.787,9.568,1.787,9.568s-1.311,3.649-1.836,8
		c-0.523,4.35-0.707,9.409-0.707,9.409s-0.248,6.239,0.1,7.524c0.317,1.175,1.078,4.126,1.896,6.419
		c0.077,0.216,0.154,0.426,0.232,0.628c0.904,2.351-32.674,3.044-31.629-0.375c0.857-2.806,1.676-5.539,1.746-6.273
		c0.155-1.628,0.148-8.086,0.148-8.086s0.057-5.81-0.039-6.583s-0.795-5.902-0.984-6.997c-0.19-1.094-0.466-2.476-0.466-2.476
		l-0.126-0.53c0,0,1.52-5.132,1.378-9.981C59.237,47.171,57.431,42.713,58.111,42.446z"/>
</g>
<g id="roupa_intima">
	<path fill="none" stroke="#0A0A0A" stroke-width="0.25" stroke-miterlimit="10" d="M90.355,96.474H56.542
		c0,0-0.919,3.839-1.072,4.464s18.71,12.405,18.71,12.405l17.355-12.673L90.355,96.474z"/>
</g>
</svg>
