<?xml version="1.0" encoding="utf-8"?>
<!-- Generator: Adobe Illustrator 15.0.0, SVG Export Plug-In . SVG Version: 6.00 Build 0)  -->
<!DOCTYPE svg PUBLIC "-//W3C//DTD SVG 1.1//EN" "http://www.w3.org/Graphics/SVG/1.1/DTD/svg11.dtd">
<svg version="1.1" xmlns="http://www.w3.org/2000/svg" xmlns:xlink="http://www.w3.org/1999/xlink" x="0px" y="0px" width="144px"
	 height="216px" viewBox="0 0 144 216" enable-background="new 0 0 144 216" xml:space="preserve">
<g id="Shape_1_1_" enable-background="new    ">
</g>
<g id="cabeça">
	<path fill-rule="evenodd" clip-rule="evenodd" fill="#ADD6F2" d="M77.555,33.532c-0.003-0.812,0.073-1.436,0.073-1.436
		s0.234-0.422,1.203-2.016s1.547-3.844,1.547-3.844s0.281-0.094,0.656-0.438s0.531-1.828,0.531-1.828s0.641-2.453,0.563-3.422
		s-0.803-1.281-0.803-1.281s-0.182-0.078-0.057-0.906s0.047-3.469-0.234-5.016s-2.125-4.469-4.063-5.469S71.362,6.736,68.69,7.33
		c-2.672,0.594-4.609,2.859-5.484,5.25s-0.328,6.531-0.328,6.531s-0.422,0.281-0.844,0.813s0.031,2.203,0.453,4.125
		s0.797,1.891,1.016,1.953s0.5,1.188,0.875,2.25s2,3.938,2,3.938s0.089,0.609,0.097,1.407c0,0,0.772,2.204,5.179,2.173
		C75.855,35.741,77.555,33.532,77.555,33.532z"/>
</g>
<g id="pescoço">
	<path fill-rule="evenodd" clip-rule="evenodd" fill="#ADD6F2" d="M79.79,39.129c-0.022-0.023-0.051-0.043-0.073-0.067
		c-1.047-1.123-1.637-2.453-1.921-3.464c-0.189-0.675-0.243-1.463-0.245-2.126c0,0-1.898-1.686-5.551-1.686
		c-4.066,0-5.529,1.75-5.529,1.75c0.004,0.454-0.017,0.969-0.097,1.468c-0.219,1.375-0.844,2.375-2.188,4.063
		c-0.017,0.021-0.038,0.042-0.056,0.063c0,0,3.272,1.469,7.87,1.469C76.371,40.598,79.79,39.129,79.79,39.129z"/>
</g>
<g id="tronco">
	<path fill-rule="evenodd" clip-rule="evenodd" fill="#ADD6F2" d="M86.577,89.582c-0.203-0.516-0.75-3.328-0.828-4.25
		s-0.016-6.219-0.016-6.219s0.481-7.33,0.856-10.97c0.179-1.739,1.331-5.368,1.686-6.438c0,0,2.424-2.331,2.564-8.274
		c0.167-7.042-3.5-10.847-3.5-10.847c-1.818-0.668-4.391-1.377-5.763-2.096c-0.691-0.362-1.263-0.825-1.75-1.328
		c0,0-6.202-2.078-8.222-2.078c-1.911,0-7.502,2.078-7.502,2.078c-1.394,1.636-4.698,2.75-4.698,2.75s-1.512,0.525-2.94,1.025
		c0,0-2.844,2.444-2.844,9.116c0,7.671,2.844,9.811,2.844,9.811c0.723,2.181,1.721,10.506,1.721,10.506s0.083,11.208,0.042,13.417
		c-0.042,2.193-1.808,6.73-3.995,14.625c0,0,2.855,3.5,17.772,3.5c12.218,0,17.772-3.5,17.772-3.5
		c-0.472-2.066-1.072-4.6-1.277-5.156C88.171,94.363,86.78,90.098,86.577,89.582z"/>
</g>
<g id="ombro_esquerdo">
	<path fill-rule="evenodd" clip-rule="evenodd" fill="#ADD6F2" d="M56.465,60.296c0,0,1.938-2.417,1.938-7.667
		c0-4.907-1.938-9.71-1.938-9.71c-0.343,0.121-0.667,0.234-0.945,0.333c-1.547,0.547-4.094,1.688-6.094,3.484
		s-1.984,8.266-1.984,8.266s0.044,2.63,0.087,5.294c0,0,1.404,1.552,4.424,1.552C54.621,61.848,56.465,60.296,56.465,60.296z"/>
</g>
<g id="ombro_direito">
	<path fill-rule="evenodd" clip-rule="evenodd" fill="#ADD6F2" d="M97.089,60.051v-2.393c0,0-0.047-4.516-0.109-5.469
		s-0.859-4.313-2.406-6.125s-5.344-2.781-5.344-2.781s-0.787-0.273-1.89-0.676c0,0-2.125,2.772-2.125,8.553
		c0,6,2.125,8.891,2.125,8.891s0.719,1.109,4.422,1.109C95.277,61.16,97.089,60.051,97.089,60.051z"/>
</g>
<g id="braço_esquerdo">
	<path fill-rule="evenodd" clip-rule="evenodd" fill="#ADD6F2" d="M47.64,65.984c0.016,1.281-0.703,6.578-0.703,6.578l-1.531,6.703
		l-1.75,6.797l-2.094,9.5L40.218,104c0,0-0.253,1.813,1.622,2.494c1.587,0.576,3.309-0.705,3.309-0.705
		c0.269-0.856,4.453-14.192,5.945-17.539C52.635,84.791,56.177,65,56.177,65s-0.038-3.372,0.621-3.137v-1.577
		c0,0-2.051-1.859-4.771-1.859c-3.031,0-4.477,1.859-4.477,1.859C47.591,62.757,47.632,65.353,47.64,65.984z"/>
</g>
<g id="braço_direito">
	<path fill-rule="evenodd" clip-rule="evenodd" fill="#ADD6F2" d="M104.885,104.064v-0.125c0,0-0.953-5.641-1.016-6.094
		s-0.875-4.453-1.047-5.172s-1.641-7.313-1.641-7.313l-2.031-7.844c0,0-1.047-5.156-1.438-6.797s-0.266-4.156-0.266-4.156
		l-0.358-6.514c0,0-1.187-2.063-4.968-2.063c-3.359,0-4.031,2.063-4.031,2.063c-0.074-1.928,0.186,1.654,0.186,1.654l0.547,3.563
		l1.031,5.844c0,0,1.234,6.125,1.453,7.406s1.078,4.766,1.078,4.766l1.906,6.234l2.516,7.5l2.922,8.578c0,0-0.003,0.017-0.004,0.023
		c0,0,0.979,1.207,3.24,0.526C105.043,105.519,104.885,104.064,104.885,104.064z"/>
</g>
<g id="mão_esquerda">
	<path fill-rule="evenodd" clip-rule="evenodd" fill="#ADD6F2" d="M40.234,103.912c0,0-0.563,0.469-1.688,0.813
		s-2.688,2.531-3.016,3.344c-0.328,0.813-1.359,2.563-1.359,2.563l-0.828,1l0.188,0.516l0.422,0.297l0.547,0.109l0.5-0.188
		l1.297-1.266l-0.094,0.594c0,0-2.422,5.719-2.703,6.188s-0.922,1.266-0.625,2.063s0.984,0.297,1.609-0.266s2.219-4.906,2.219-4.906
		s0.406-0.375,0.453-0.328s-0.156,0.984-0.469,1.531s-0.953,3.234-1.063,3.703s-0.188,1.406,0,1.719s0.656,0.281,1.016,0.172
		s2.531-6.75,2.531-6.75l0.141,0.297c0,0-1.063,4.094-1.094,4.422s-0.344,1.797,0.484,2.031s1.25-1.313,1.609-3.344
		s1.125-3.5,1.125-3.5l0.016,0.75l-0.406,1.563l-0.281,2.094l0.135,0.447c0,0,0.417,0.291,0.792,0.041s1.5-4.457,1.5-4.457
		l0.542-0.918c0,0,0.917-2.416,1.417-3.457s0-5.042,0-5.042s0.111-2.027-1.998-2.813C41.53,102.326,40.234,103.912,40.234,103.912z"
		/>
</g>
<g id="mão_direita">
	<path fill-rule="evenodd" clip-rule="evenodd" fill="#ADD6F2" d="M111.234,117.207l-1.359-3.219l-1.359-3.172l0.641,0.609
		l0.672,0.719l0.563,0.188l0.781-0.313l0.188-0.469v-0.281l-0.391-0.484l-0.516-0.875l-1.219-2.27c0,0-0.953-1.434-2-2.496
		s-2.375-1.109-2.375-1.109v-0.125c0,0-1.309-1.617-3.473-0.922c-2.099,0.674-1.684,2.578-1.684,2.578s-0.25,1.422-0.078,3.531
		s1.531,4.969,1.781,5.281s0.844,2.188,0.844,2.188s0.047,0.922,0.672,2.469s1.063,0.281,1.234-0.328s-0.625-3.484-0.688-3.656
		s-0.172-0.781,0.109-0.641s0.75,2.047,0.75,2.047s0.391,2.25,0.75,3.578s0.828,1.391,1.281,1.281s0.203-1.781,0.188-2.375
		s-0.766-3.125-0.766-3.125s-0.219-0.5-0.219-1.063s0.406,0.328,0.406,0.328s1.266,4.594,1.828,5.688s1.172,0.969,1.531,0.609
		s0.125-1.625,0.125-1.625l-0.813-2.641c0,0-0.609-1.75-0.797-2.406s0.297-0.234,0.297-0.234s2.234,4.875,2.703,5.438
		s1.063,0.063,1.172-0.141s-0.094-0.984-0.094-0.984L111.234,117.207z"/>
</g>
<g id="coxa_esquerda">
	<path fill-rule="evenodd" clip-rule="evenodd" fill="#ADD6F2" d="M72.548,100.097c-0.974-1.437,0.155-14.437-7.958-14.312
		c-5.311,0.082-10.364,14.472-10.403,14.614c-2.208,8-0.333,18.833-0.333,18.833s1.667,15.043,1.958,18.459
		c0.141,1.645,0.252,5.917,0.302,10.562c0.005,0.466,0.009,0.937,0.013,1.407c0,0,2.007,9.25,5.617,9.25
		c2.984,0,5.35-9.25,5.35-9.25c0.057-0.443,0.128-0.9,0.216-1.375c0.388-2.086,1.016-4.396,1.377-6.26
		c0.543-2.791,2.61-19.371,2.625-19.621s1.402-8.921,1.402-8.921S73.113,100.931,72.548,100.097z"/>
	<path fill="none" d="M72,100.41"/>
</g>
<g id="coxa_direita">
	<path fill-rule="evenodd" clip-rule="evenodd" fill="#ADD6F2" d="M71.267,98.547c2.163-1.666,6.148-12.783,8.823-12.763
		c5.501,0.041,9.678,14.469,9.718,14.615c2.208,8,0.333,18.833,0.333,18.833s-1.667,15.043-1.958,18.459
		c-0.141,1.645-0.252,5.917-0.302,10.562c-0.005,0.466-0.009,0.937-0.013,1.407c0,0-2.888,9.25-5.533,9.25
		c-3.401,0-5.434-9.25-5.434-9.25c-0.057-0.443-0.129-0.9-0.217-1.375c-0.388-2.086-1.016-4.396-1.377-6.26
		c-0.543-2.791-1.431-19.365-1.446-19.615s-1.104-8.927-1.104-8.927S70.468,99.162,71.267,98.547z"/>
</g>
<g id="perna_esquerda">
	<path fill-rule="evenodd" clip-rule="evenodd" fill="#ADD6F2" d="M66.107,186.387c0.667-3,1.333-15.834,1.375-17.166
		c0.042-1.334-0.542-15.5-0.507-18.041c0.012-0.885,0.163-1.926,0.371-3.02c0,0-2.725-1.734-5.882-1.734
		c-3.921,0-5.349,1.734-5.349,1.734c0.056,5.035,0.039,10.53-0.092,13.602c-0.25,5.875,1.833,21.416,2,22.25
		c0.156,0.782,1.778,11.199,2.151,14.899c0.006,0.056,1.426,1.25,2.836,1.28c1.509,0.032,3.014-1.106,2.981-1.277
		c-0.182-0.941-0.335-1.756-0.427-2.318C65.148,194.053,65.44,189.387,66.107,186.387z"/>
</g>
<g id="Perna_direita">
	<path fill-rule="evenodd" clip-rule="evenodd" fill="#ADD6F2" d="M76.593,169.329c0.016,1.109,0.156,6.5,0.281,7.563
		s0.797,7.422,0.984,8.719s0.797,6.109,0.75,7.234s-0.516,6.031-0.516,6.031s-0.007,0.038-0.019,0.097c0,0,1.219,1.297,2.891,1.094
		c2.017-0.245,3.021-1.094,3.021-1.094c-0.012-0.707-0.008-1.351,0.013-1.753c0.063-1.219,0.422-3.141,0.422-3.141l0.906-5.172
		l1.188-7.609l0.859-7.453l0.344-4.422l0.359-9.172l-0.125-6.828l-0.011-4.685l-0.001-0.328c0,0-1.929-1.891-5.491-1.891
		c-4.156,0-5.762,1.891-5.762,1.891c0.007,0.037,0.014,0.074,0.021,0.11c0.118,0.665,0.212,1.211,0.244,1.465
		c0.125,0.984,0.125,7.125,0,8.594S76.577,168.22,76.593,169.329z"/>
</g>
<g id="pé_esquerdo">
	<path fill-rule="evenodd" clip-rule="evenodd" fill="#ADD6F2" d="M57.983,206.652l1.094-1.484c0,0,0.531-1.328,0.797-2.344
		c0.182-0.692,0.274-2.467,0.295-3.914c0.003-0.172,1.671-1.338,3.212-1.297c1.396,0.037,2.584,1.266,2.584,1.266
		s1.253,6.023,1.565,8.273s-0.891,2.814-0.891,2.814s-6.578,0-7.422-0.127s-0.984-0.641-1.031-0.703s-0.656-0.969-0.688-1.5
		S57.983,206.652,57.983,206.652z"/>
</g>
<g id="pé_direito">
	<path fill-rule="evenodd" clip-rule="evenodd" fill="#ADD6F2" d="M86.19,206.652l-1.094-1.484c0,0-0.531-1.328-0.797-2.344
		c-0.182-0.692-0.274-2.467-0.295-3.914c-0.003-0.172-1.671-1.338-3.212-1.297c-1.396,0.037-2.681,1.273-2.681,1.273
		s-1.156,6.016-1.469,8.266s0.891,2.814,0.891,2.814s6.578,0,7.422-0.127s0.984-0.641,1.031-0.703s0.656-0.969,0.688-1.5
		S86.19,206.652,86.19,206.652z"/>
</g>
<g id="Layer_17">
	<path fill-rule="evenodd" clip-rule="evenodd" fill="#ADD6F2" d="M84.442,86.167c2.352,10.549-5.509,12.743-12.306,12.743
		c-6.798,0-14.915-2.919-12.309-12.743c2.606-9.823,5.51-12.743,12.309-12.743C78.934,73.424,82.876,77.813,84.442,86.167z"/>
</g>
</svg>
