<?xml version="1.0" encoding="utf-8"?>
<!-- Generator: Adobe Illustrator 17.0.0, SVG Export Plug-In . SVG Version: 6.00 Build 0)  -->
<!DOCTYPE svg PUBLIC "-//W3C//DTD SVG 1.1 Basic//EN" "http://www.w3.org/Graphics/SVG/1.1/DTD/svg11-basic.dtd">
<svg version="1.1" baseProfile="basic" id="Camada_1"
	 xmlns="http://www.w3.org/2000/svg" xmlns:xlink="http://www.w3.org/1999/xlink" x="0px" y="0px" width="144px" height="216px"
	 viewBox="0 0 144 216" xml:space="preserve">
<path fill="none" stroke="#020202" stroke-miterlimit="10" d="M103.187,92.847l-3.191-13.059l-1.899-18.163l-0.065-0.619
	l-1.176-11.247c0,0-1.427-5.48-7.079-6.679s-8.221-3.026-8.392-3.14s-2.209,4.681-7.584,5.252c-4.016,0.427-6.625-0.294-7.688-0.686
	l-0.564-0.247c-0.281-0.24-3.089-2.653-3.631-3.52c-0.571-0.913-0.285-0.801-0.285-0.801s-3.085,2.47-5.251,2.791l-0.853,0.124
	c-2.245,0.37-5.576,1.348-7.198,5.25c-0.893,2.148-1.295,7.555-1.472,12.522l-0.015,0.431c-0.168,5.024-0.111,9.483-0.111,9.483
	l-2.112,9.248l-2.987,13.914l-0.093,0.43l-1.26,5.866l7.879,2.056l1.848-5.708l0.318-0.982l5.027-15.518l1.209-9.917l0.063-0.512
	l0.726-5.956l0.263,5.995l0.031,0.697l0.619,14.089l-1.029,3.55l-0.097,0.335l-1.671,5.763h6h0.841h21.448h0.421h6l-2.294-5.544
	l-0.273-0.66l-1.543-3.729c0,0,0.546-8.127,0.906-14.146l0.021-0.356c0.198-3.344,0.333-5.953,0.272-5.993l0.912,5.93l0.157,1.024
	l1.442,9.373l5.36,16.081l0.164,0.491l1.898,5.693l7.881-1.337l-1.719-7.036L103.187,92.847z"/>
<path fill="none" stroke="#020202" stroke-miterlimit="10" d="M57.219,93.47h30.942c0,0,4.567,10.961,3.92,18.954
	c-0.647,7.992-3.121,28.924-3.121,28.924l-0.647,7.346c0,0,1.104,21.731-0.19,29.344c-1.294,7.612-3.578,19.029-3.578,19.029h-7.916
	l-0.837-28.773l0.152-16.366c0,0-3.349-22.53-3.349-25.956c0-3.425-3.502,23.901-3.654,25.271c-0.153,1.37,0.228,17.66,0.228,17.66
	l-1.751,28.163h-8.906c0,0-2.969-22.759-2.892-29.001c0.076-6.241,0.533-15.605,0.685-19.334s-2.74-27.707-3.121-32.121
	C52.804,112.195,53.108,99.864,57.219,93.47z"/>
</svg>
