<?xml version="1.0" encoding="utf-8"?>
<!-- Generator: Adobe Illustrator 17.0.0, SVG Export Plug-In . SVG Version: 6.00 Build 0)  -->
<!DOCTYPE svg PUBLIC "-//W3C//DTD SVG 1.0//EN" "http://www.w3.org/TR/2001/REC-SVG-20010904/DTD/svg10.dtd">
<svg version="1.0" xmlns="http://www.w3.org/2000/svg" xmlns:xlink="http://www.w3.org/1999/xlink" x="0px" y="0px" width="144px"
	 height="216px" viewBox="0 0 144 216" enable-background="new 0 0 144 216" xml:space="preserve">
<g id="Camada_1">
	<path fill="none" stroke="#020202" stroke-miterlimit="10" d="M56.72,95.175h31.161c0,0,4.599,11.039,3.948,19.087
		c-0.528,6.52-2.262,21.591-2.903,27.081c-0.013,0.111-15.128,0.252-15.167-0.031c-0.797-5.814-1.554-11.771-1.554-13.406
		c0-1.929-1.102,5.822-2.101,13.274c-0.049,0.368-15.006,0.17-15.034-0.118c-0.85-8.521-2.163-19.7-2.412-22.585
		C52.274,114.031,52.581,101.614,56.72,95.175z"/>
	<path fill="none" stroke="#020202" stroke-miterlimit="10" d="M55.445,91.734c2.369-8.172,1.321-28.049,1.321-28.049l-0.518,4.251
		l-10.011-4.862c0,0-1.47-19.649,7.423-20.892s7.547-3.236,7.547-3.236s3.832,5.554,8.043,5.422
		c4.211-0.131,10.448-1.722,11.849-5.42c0,0,13.759,3.226,15.58,9.889s1.509,14.43,1.509,14.43L87.813,67.79l-0.793-5.155
		l-1.207,20.64l4.139,10.004H53.996L55.445,91.734z"/>
</g>
<g id="Camada_2">
</g>
</svg>
