<?xml version="1.0" encoding="utf-8"?>
<!-- Generator: Adobe Illustrator 15.0.0, SVG Export Plug-In . SVG Version: 6.00 Build 0)  -->
<!DOCTYPE svg PUBLIC "-//W3C//DTD SVG 1.1//EN" "http://www.w3.org/Graphics/SVG/1.1/DTD/svg11.dtd">
<svg version="1.1" xmlns="http://www.w3.org/2000/svg" xmlns:xlink="http://www.w3.org/1999/xlink" x="0px" y="0px"
	 width="162.34px" height="361.34px" viewBox="0 0 162.34 361.34" enable-background="new 0 0 162.34 361.34" xml:space="preserve">
<g id="Shape_1_1_" enable-background="new    ">
</g>
<g id="cabeça">
	<path fill-rule="evenodd" clip-rule="evenodd" fill="#ADD6F2" d="M71.404,66.94c-0.013-1.27-0.154-2.24-0.154-2.24
		s-2.587-4.577-3.184-6.269c-0.597-1.691-1.045-3.482-1.393-3.582c-0.349-0.1-0.945-0.05-1.617-3.109
		c-0.672-3.06-1.394-5.721-0.722-6.567c0.672-0.846,1.344-1.294,1.344-1.294s-0.871-6.592,0.522-10.397
		c1.393-3.806,4.477-7.413,8.73-8.358c4.255-0.945,10.1-0.721,13.185,0.871s6.02,6.244,6.468,8.706
		c0.447,2.463,0.572,6.667,0.373,7.985s0.09,1.443,0.09,1.443s1.153,0.498,1.278,2.04c0.124,1.542-0.896,5.448-0.896,5.448
		s-0.249,2.363-0.846,2.91c-0.598,0.547-1.045,0.697-1.045,0.697s-0.921,3.582-2.463,6.119s-1.915,3.209-1.915,3.209
		s-0.121,0.994-0.117,2.286"/>
</g>
<g id="pescoço">
	<path fill-rule="evenodd" clip-rule="evenodd" fill="#ADD6F2" d="M92.604,75.749c-0.036-0.038-0.081-0.069-0.117-0.107
		c-1.666-1.788-2.605-3.905-3.058-5.515c-0.302-1.074-0.388-2.329-0.391-3.385l-17.64,0.103c0.007,0.723-0.027,1.543-0.154,2.337
		c-0.349,2.189-1.344,3.781-3.482,6.468c-0.027,0.034-0.061,0.066-0.089,0.1H92.604z"/>
</g>
<g id="tronco">
	<path fill-rule="evenodd" clip-rule="evenodd" fill="#ADD6F2" d="M103.408,156.069c-0.323-0.821-1.194-5.298-1.318-6.766
		c-0.125-1.468-0.025-9.9-0.025-9.9s0.767-11.668,1.363-17.464c0.285-2.769,2.119-8.545,2.684-10.249l-1.489-30.44
		c-2.895-1.063-6.989-2.192-9.174-3.337c-1.101-0.577-2.011-1.314-2.786-2.114H67.63c-2.22,2.604-7.479,4.378-7.479,4.378
		s-2.407,0.836-4.681,1.631v30.132c1.15,3.472,2.74,16.726,2.74,16.726s0.133,17.843,0.065,21.359
		c-0.065,3.491-2.878,10.715-6.36,23.283h56.585c-0.751-3.289-1.707-7.323-2.033-8.208
		C105.945,163.681,103.731,156.89,103.408,156.069z"/>
</g>
<g id="ombro_esquerdo">
	<path fill-rule="evenodd" clip-rule="evenodd" fill="#ADD6F2" d="M55.47,109.446V81.783c-0.546,0.192-1.063,0.373-1.504,0.529
		c-2.462,0.871-6.517,2.687-9.701,5.547c-3.184,2.86-3.159,13.159-3.159,13.159s0.07,4.187,0.139,8.428H55.47z"/>
</g>
<g id="ombro_direito">
	<path fill-rule="evenodd" clip-rule="evenodd" fill="#ADD6F2" d="M120.143,109.056v-3.809c0,0-0.074-7.188-0.174-8.706
		s-1.368-6.865-3.831-9.751c-2.463-2.885-8.507-4.428-8.507-4.428s-1.254-0.435-3.009-1.077v27.771H120.143z"/>
</g>
<g id="braço_esquerdo">
	<path fill-rule="evenodd" clip-rule="evenodd" fill="#ADD6F2" d="M41.421,118.502c0.025,2.04-1.12,10.472-1.12,10.472
		l-2.438,10.671l-2.786,10.821l-3.333,15.124l-2.139,13.433l7.849,2.847c0.428-1.363,7.089-22.593,9.464-27.922
		c2.454-5.506,8.093-37.014,8.093-37.014s-0.061-5.368,0.989-4.995v-2.511H41.278C41.342,113.364,41.408,117.497,41.421,118.502z"/>
</g>
<g id="braço_direito">
	<path fill-rule="evenodd" clip-rule="evenodd" fill="#ADD6F2" d="M132.554,179.125v-0.199c0,0-1.518-8.979-1.617-9.701
		c-0.1-0.721-1.393-7.089-1.666-8.233c-0.274-1.144-2.612-11.642-2.612-11.642l-3.233-12.487c0,0-1.667-8.209-2.289-10.821
		s-0.423-6.617-0.423-6.617l-0.57-10.37h-14.326c-0.118-3.069,0.295,2.634,0.295,2.634l0.871,5.671l1.642,9.303
		c0,0,1.965,9.751,2.313,11.791c0.348,2.04,1.716,7.587,1.716,7.587l3.035,9.925l4.005,11.94l4.651,13.656
		c0,0-0.005,0.027-0.006,0.037L132.554,179.125z"/>
</g>
<g id="mão_esquerda">
	<path fill-rule="evenodd" clip-rule="evenodd" fill="#ADD6F2" d="M29.63,178.882c0,0-0.896,0.746-2.686,1.293
		c-1.791,0.547-4.279,4.029-4.801,5.323c-0.522,1.294-2.164,4.08-2.164,4.08l-1.318,1.592l0.299,0.821l0.671,0.472l0.871,0.174
		l0.796-0.298l2.065-2.015l-0.149,0.945c0,0-3.855,9.104-4.303,9.851s-1.468,2.015-0.995,3.283s1.567,0.473,2.562-0.423
		c0.995-0.896,3.532-7.811,3.532-7.811s0.647-0.597,0.722-0.522c0.074,0.075-0.249,1.567-0.747,2.438s-1.517,5.149-1.691,5.895
		c-0.174,0.747-0.298,2.239,0,2.736c0.299,0.498,1.045,0.448,1.617,0.273c0.572-0.174,4.029-10.746,4.029-10.746l0.224,0.473
		c0,0-1.691,6.517-1.741,7.04s-0.547,2.86,0.771,3.233c1.318,0.374,1.99-2.089,2.562-5.323c0.572-3.233,1.791-5.572,1.791-5.572
		l0.025,1.194l-0.646,2.488l-0.448,3.333l0.215,0.712c0,0,0.664,0.463,1.261,0.065c0.597-0.398,2.388-7.095,2.388-7.095l0.862-1.461
		c0,0,1.459-3.846,2.255-5.504c0.796-1.657,0-8.027,0-8.027L29.63,178.882z"/>
</g>
<g id="mão_direita">
	<path fill-rule="evenodd" clip-rule="evenodd" fill="#ADD6F2" d="M142.662,200.048l-2.164-5.125l-2.164-5.049l1.02,0.97l1.07,1.144
		l0.895,0.298l1.244-0.497l0.299-0.747v-0.448l-0.622-0.771l-0.821-1.393l-1.939-3.613c0,0-1.518-2.283-3.185-3.974
		c-1.666-1.691-3.781-1.766-3.781-1.766v-0.199l-8.208,2.637c0,0-0.398,2.264-0.125,5.622c0.274,3.358,2.438,7.91,2.836,8.408
		c0.398,0.498,1.344,3.482,1.344,3.482s0.074,1.468,1.069,3.93c0.995,2.463,1.691,0.448,1.965-0.522
		c0.273-0.97-0.995-5.547-1.095-5.82c-0.099-0.274-0.273-1.244,0.175-1.02c0.447,0.224,1.193,3.259,1.193,3.259
		s0.622,3.582,1.194,5.696c0.572,2.114,1.318,2.214,2.04,2.04c0.721-0.174,0.323-2.836,0.298-3.781
		c-0.024-0.945-1.219-4.975-1.219-4.975s-0.348-0.796-0.348-1.691s0.646,0.522,0.646,0.522s2.015,7.313,2.91,9.055
		s1.865,1.542,2.438,0.97c0.572-0.572,0.199-2.587,0.199-2.587l-1.293-4.204c0,0-0.971-2.786-1.269-3.831
		c-0.299-1.045,0.472-0.373,0.472-0.373s3.558,7.761,4.304,8.656s1.691,0.1,1.866-0.224c0.174-0.324-0.149-1.567-0.149-1.567
		L142.662,200.048z"/>
</g>
<g id="coxa_esquerda">
	<path fill-rule="evenodd" clip-rule="evenodd" fill="#ADD6F2" d="M81.073,172.808c-14.418-0.017-29.135,0.137-29.23,0.481
		c-3.515,12.735-0.53,29.982-0.53,29.982s2.654,23.948,3.117,29.387c0.224,2.618,0.402,9.42,0.481,16.814
		c0.008,0.742,0.014,1.49,0.02,2.24h17.459c0.091-0.705,0.204-1.434,0.345-2.189c0.618-3.32,1.616-6.999,2.191-9.965
		c0.865-4.443,4.155-30.838,4.18-31.236c0.025-0.398,2.233-14.202,2.233-14.202S82.678,172.81,81.073,172.808z"/>
	<path fill="none" d="M80.201,173.307"/>
</g>
<g id="coxa_direita">
	<path fill-rule="evenodd" clip-rule="evenodd" fill="#ADD6F2" d="M79.321,172.808c14.418-0.017,29.135,0.137,29.229,0.481
		c3.516,12.735,0.53,29.982,0.53,29.982s-2.653,23.948-3.117,29.387c-0.224,2.618-0.401,9.42-0.48,16.814
		c-0.008,0.742-0.014,1.49-0.021,2.24H88.004c-0.09-0.705-0.205-1.434-0.345-2.189c-0.617-3.32-1.617-6.999-2.192-9.965
		c-0.864-4.443-2.277-30.829-2.302-31.227c-0.025-0.398-1.759-14.211-1.759-14.211S77.717,172.81,79.321,172.808z"/>
</g>
<g id="perna_esquerda">
	<path fill-rule="evenodd" clip-rule="evenodd" fill="#ADD6F2" d="M70.82,310.182c1.063-4.777,2.122-25.209,2.189-27.328
		c0.066-2.125-0.863-24.676-0.808-28.721c0.02-1.41,0.259-3.066,0.591-4.809H54.914c0.088,8.016,0.062,16.766-0.146,21.654
		c-0.398,9.354,2.919,34.094,3.184,35.422c0.249,1.244,2.831,17.828,3.426,23.719c0.019,0.184,9.362,0.531,9.261,0.006
		c-0.289-1.5-0.533-2.797-0.68-3.691C69.294,322.385,69.759,314.957,70.82,310.182z"/>
</g>
<g id="Perna_direita">
	<path fill-rule="evenodd" clip-rule="evenodd" fill="#ADD6F2" d="M87.513,283.025c0.025,1.766,0.249,10.348,0.448,12.039
		s1.269,11.816,1.567,13.881c0.298,2.064,1.269,9.727,1.193,11.518c-0.074,1.791-0.82,9.602-0.82,9.602s-0.011,0.061-0.03,0.152
		h9.412c-0.019-1.125-0.012-2.148,0.021-2.789c0.1-1.941,0.672-5,0.672-5l1.442-8.234l1.891-12.113l1.368-11.865l0.547-7.041
		l0.572-14.602l-0.199-10.869l-0.019-7.98H87.664c0.205,1.141,0.367,2.082,0.421,2.508c0.199,1.566,0.199,11.344,0,13.682
		S87.488,281.26,87.513,283.025z"/>
</g>
<g id="pé_esquerdo">
	<path fill-rule="evenodd" clip-rule="evenodd" fill="#ADD6F2" d="M61.215,328.66c0.12,1.021,0.209,1.875,0.253,2.482
		c0.332,4.645-1.924,9.484-3.517,11.209c-1.591,1.725-0.929,2.588-0.929,2.588l2.72,2.781c0,0,11.409,0,12.14-0.395
		c0.729-0.393,0.995-0.596,1.194-2.586c0.17-1.703-1.744-10.916-2.718-16.08H61.215z"/>
</g>
<g id="pé_direito">
	<path fill-rule="evenodd" clip-rule="evenodd" fill="#ADD6F2" d="M102.792,342.443l-1.741-2.363c0,0-0.846-2.113-1.269-3.73
		c-0.354-1.354-0.496-5.295-0.476-7.689h-9.241c-0.079,0.854-0.134,1.42-0.134,1.42s-1.84,9.578-2.338,13.16
		c-0.497,3.582,1.418,4.48,1.418,4.48s10.473,0,11.815-0.203c1.344-0.201,1.567-1.02,1.642-1.119c0.075-0.1,1.045-1.541,1.095-2.387
		C103.613,343.164,102.792,342.443,102.792,342.443z"/>
</g>
</svg>
