<?xml version="1.0" encoding="utf-8"?>
<!-- Generator: Adobe Illustrator 17.0.0, SVG Export Plug-In . SVG Version: 6.00 Build 0)  -->
<!DOCTYPE svg PUBLIC "-//W3C//DTD SVG 1.1//EN" "http://www.w3.org/Graphics/SVG/1.1/DTD/svg11.dtd">
<svg version="1.1" id="Camada_1" xmlns="http://www.w3.org/2000/svg" xmlns:xlink="http://www.w3.org/1999/xlink" x="0px" y="0px"
	 width="144px" height="216px" viewBox="0 0 144 216" enable-background="new 0 0 144 216" xml:space="preserve">
<g>
	<g>
		<polyline fill="none" stroke="#020202" stroke-miterlimit="10" points="57.223,83.408 55.552,89.171 61.552,89.171 		"/>
		
			<line fill="none" stroke="#020202" stroke-miterlimit="10" stroke-dasharray="9.0081,0.7507,9.0081,0.7507" x1="62.303" y1="89.171" x2="81.445" y2="89.171"/>
		<polyline fill="none" stroke="#020202" stroke-miterlimit="10" points="81.82,89.171 87.82,89.171 85.526,83.627 		"/>
		<path fill="none" stroke="#020202" stroke-miterlimit="10" stroke-dasharray="11.548,0.9623,11.548,0.9623" d="M85.158,82.738
			l-1.159-2.801c0,0,1.274-18.947,1.115-19.053c0,0-0.548-0.811-1.178-2.11"/>
		<path fill="none" stroke="#020202" stroke-miterlimit="10" stroke-dasharray="11.548,0.9623,11.548,0.9623,11.548,0.9623" d="
			M83.73,58.338c-0.654-1.423-1.342-3.314-1.578-5.335c-0.666-5.708,0.555-12.451,0.186-12.603
			c-1.743-0.715-2.598-1.321-2.691-1.383c-0.159-0.106-2.053,4.352-7.05,4.883c-3.399,0.361-5.714-0.162-6.847-0.533"/>
		<path fill="none" stroke="#020202" stroke-miterlimit="10" d="M65.299,43.205c-0.235-0.092-0.354-0.154-0.354-0.154
			s-2.866-2.441-3.397-3.291c-0.531-0.849-0.265-0.745-0.265-0.745s-1.005,0.805-2.244,1.524c-0.196,0.114-0.077,1.399,0.112,3.253"
			/>
		<path fill="none" stroke="#020202" stroke-miterlimit="10" stroke-dasharray="7.3194,0.61,7.3194,0.61" d="M59.214,44.397
			c0.276,2.696,0.637,6.342,0.452,9.391c-0.16,2.649-0.992,4.69-1.624,5.888"/>
		<path fill="none" stroke="#020202" stroke-miterlimit="10" stroke-dasharray="7.3194,0.61,7.3194,0.61,7.3194,0.61" d="
			M57.9,59.941c-0.342,0.613-0.596,0.942-0.596,0.942l0.849,19.319l-0.844,2.911"/>
	</g>
</g>
<polygon fill="none" stroke="#020202" stroke-miterlimit="10" stroke-dasharray="12,1,12,1,12,1" points="57.109,92.66 
	88.104,92.66 88.896,98.533 73.774,112.863 71.615,112.863 55.552,98.604 55.977,92.66 "/>
</svg>
